<svg width="1378" height="585" viewBox="0 0 1378 585" fill="none" xmlns="http://www.w3.org/2000/svg">
<rect width="1378" height="585" fill="#1E1E1E"/>
<g clip-path="url(#clip0_0_1)">
<rect width="1440" height="2945" transform="translate(-34)" fill="#101834"/>
<g style="mix-blend-mode:color-dodge" filter="url(#filter0_f_0_1)">
<path d="M858.674 460.787C973.177 477.473 1131.03 423.396 1211.25 340.003V340.003C1291.47 256.61 1263.67 175.479 1149.17 158.793L750.69 100.725C636.187 84.0386 478.335 138.116 398.116 221.509V221.509C317.898 304.902 345.692 386.033 460.195 402.719L858.674 460.787Z" fill="url(#paint0_radial_0_1)"/>
</g>
<g style="mix-blend-mode:color-dodge" filter="url(#filter1_f_0_1)">
<path d="M611.115 432.247C725.728 448.949 883.733 394.82 964.028 311.346V311.346C1044.32 227.873 1016.5 146.664 901.89 129.962L519.526 74.2418C404.913 57.5397 246.908 111.669 166.613 195.142V195.142C86.3176 278.616 114.138 359.824 228.751 376.526L611.115 432.247Z" fill="url(#paint1_radial_0_1)"/>
</g>
</g>
<defs>
<filter id="filter0_f_0_1" x="231.633" y="-22.9441" width="1146.1" height="607.4" filterUnits="userSpaceOnUse" color-interpolation-filters="sRGB">
<feFlood flood-opacity="0" result="BackgroundImageFix"/>
<feBlend mode="normal" in="SourceGraphic" in2="BackgroundImageFix" result="shape"/>
<feGaussianBlur stdDeviation="60.323" result="effect1_foregroundBlur_0_1"/>
</filter>
<filter id="filter1_f_0_1" x="0.0850067" y="-49.4297" width="1130.47" height="605.348" filterUnits="userSpaceOnUse" color-interpolation-filters="sRGB">
<feFlood flood-opacity="0" result="BackgroundImageFix"/>
<feBlend mode="normal" in="SourceGraphic" in2="BackgroundImageFix" result="shape"/>
<feGaussianBlur stdDeviation="60.323" result="effect1_foregroundBlur_0_1"/>
</filter>
<radialGradient id="paint0_radial_0_1" cx="0" cy="0" r="1" gradientUnits="userSpaceOnUse" gradientTransform="translate(684.107 338.707) rotate(-157.716) scale(309.072 216.262)">
<stop stop-color="#3CC1F9" stop-opacity="0.19"/>
<stop offset="1" stop-color="#1B57B3" stop-opacity="0.25"/>
</radialGradient>
<radialGradient id="paint1_radial_0_1" cx="0" cy="0" r="1" gradientUnits="userSpaceOnUse" gradientTransform="translate(598.823 293.929) rotate(-166.33) scale(624.393 344.97)">
<stop stop-color="#3CC1F9" stop-opacity="0.47"/>
<stop offset="1" stop-color="#1580F5" stop-opacity="0"/>
</radialGradient>
<clipPath id="clip0_0_1">
<rect width="1440" height="2945" fill="white" transform="translate(-34)"/>
</clipPath>
</defs>
</svg>
