<svg width="76" height="70" viewBox="0 0 76 70" fill="none" xmlns="http://www.w3.org/2000/svg">
<g clip-path="url(#clip0_1_24)">
<path d="M71.3291 36.7503H69.3499V30.2068C69.3499 25.7177 65.5499 21.9894 60.7999 21.9894H40.8499V15.2177C43.7791 14.1525 45.8374 11.4133 45.8374 8.21767C45.8374 4.03288 42.3541 0.685059 37.9999 0.685059C33.6458 0.685059 30.1624 4.03288 30.1624 8.21767C30.1624 11.4133 32.2208 14.0764 35.1499 15.2177V21.9894H15.1208C10.4499 21.9894 6.57075 25.6416 6.57075 30.2068V36.7503H4.67075C2.29575 36.7503 0.395752 38.5764 0.395752 40.859V50.522C0.395752 52.8046 2.29575 54.6307 4.67075 54.6307H6.64992V61.7829C6.64992 66.272 10.4499 70.0003 15.1999 70.0003H60.8791C65.5499 70.0003 69.4291 66.3481 69.4291 61.7829V54.6307H71.4082C73.7832 54.6307 75.6833 52.8046 75.6833 50.522V40.859C75.6041 38.6525 73.7041 36.7503 71.3291 36.7503ZM20.0291 39.1851C20.0291 35.9894 22.7208 33.4785 25.9666 33.4785C29.2916 33.4785 31.9041 36.0655 31.9041 39.1851C31.9041 42.3807 29.2124 44.8916 25.9666 44.8916C22.7208 44.8916 20.0291 42.3046 20.0291 39.1851ZM37.9999 61.5546C32.6166 61.5546 28.2624 57.3698 28.2624 52.1959C28.2624 51.4351 28.8958 50.9025 29.6083 50.9025H46.3124C47.1041 50.9025 47.6583 51.5111 47.6583 52.1959C47.7374 57.3698 43.3833 61.5546 37.9999 61.5546ZM49.9541 44.8916C46.6291 44.8916 44.0166 42.3046 44.0166 39.1851C44.0166 35.9894 46.7083 33.4785 49.9541 33.4785C53.1999 33.4785 55.8916 36.0655 55.8916 39.1851C55.9708 42.3046 53.2791 44.8916 49.9541 44.8916Z" fill="white"/>
</g>
<defs>
<clipPath id="clip0_1_24">
<rect width="76" height="70" fill="white"/>
</clipPath>
</defs>
</svg>
