<svg width="747" height="584" viewBox="0 0 747 584" fill="none" xmlns="http://www.w3.org/2000/svg">
<g style="mix-blend-mode:color-dodge" filter="url(#filter0_f_40_67)">
<path d="M349.845 457.045C442.85 479.53 557.151 430.655 605.145 347.878C653.139 265.101 616.651 179.77 523.647 157.284L397.2 126.714C304.196 104.228 189.894 153.104 141.901 235.88C93.9067 318.657 130.395 403.989 223.399 426.474L349.845 457.045Z" fill="url(#paint0_radial_40_67)"/>
</g>
<g clip-path="url(#clip0_40_67)">
<mask id="mask0_40_67" style="mask-type:luminance" maskUnits="userSpaceOnUse" x="22" y="5" width="705" height="506">
<path d="M726.655 5H22.3448V511H726.655V5Z" fill="white"/>
</mask>
<g mask="url(#mask0_40_67)">
<path d="M628.904 352C628.17 352 628.17 352 628.904 352C628.904 349 628.904 346 628.904 343C628.904 298 602.51 262 569.519 262C554.122 262 540.926 270 529.928 282C521.131 264 507.934 250 492.538 243C478.607 191 441.95 154 399.427 154C344.441 154 300.452 215 300.452 289C300.452 291 300.452 294 300.452 296C290.921 284 278.457 277 264.528 277C262.328 277 260.861 277 258.662 277C246.932 239 219.805 213 187.546 213C145.024 213 110.565 260 110.565 318C110.565 330 112.031 341 114.964 352C103.234 355 93.7026 370 93.7026 387C93.7026 407 105.433 423 120.096 423H628.904C643.567 423 655.297 407 655.297 387C655.297 368 643.567 352 628.904 352Z" fill="white"/>
<path d="M726.421 5.253V510.747H22.5796V5.253H726.421ZM726.655 5H22.3448V511H726.655V5Z" fill="black"/>
<path d="M374.899 295.836L319.57 315.225L327.523 384.057L331.208 431.684L330.199 445.751L331.948 446.207C359.146 453.366 387.577 453.113 414.669 445.486L417.592 444.663L416.583 430.596L420.937 381.527L430.962 315.225L374.899 295.836Z" fill="#5C49D8"/>
<path d="M387.483 311.649C379.759 318.493 368.677 318.695 360.743 312.13L360.155 311.649V282.706H387.483V311.649Z" fill="#FCC5B6"/>
<path d="M343.052 247.716C342.618 245.806 341.339 244.262 340.353 242.605C338.005 238.646 337.312 233.231 339.649 229.259C340.575 227.678 341.926 226.4 342.748 224.756C344.038 222.188 343.898 219.076 344.696 216.293C346.28 210.803 351.985 207.109 357.221 208.159C358.817 208.475 360.379 209.184 361.998 209.019C364.592 208.766 366.518 206.451 368.748 204.997C371.988 202.884 376.742 202.871 379.136 206.047C380.193 207.438 380.71 209.298 382.001 210.424C383.433 211.676 385.44 211.714 387.283 211.764C390.183 211.853 393.141 212.131 395.828 213.308C398.517 214.484 400.935 216.685 401.91 219.633C402.86 222.504 402.367 225.806 403.553 228.576C404.621 231.094 407.039 233.181 406.793 235.939C406.593 238.266 404.504 239.961 404.093 242.251C403.729 244.313 404.773 246.362 404.785 248.462C404.785 251.637 402.461 254.205 400.254 256.305C397.695 258.721 395.007 261.087 391.849 262.478C386.861 264.667 381.238 264.199 375.932 263.212C370.626 262.225 365.321 260.758 359.944 261.074C357.609 261.213 355.284 261.681 352.948 261.504C350.33 261.314 346.41 260.138 344.484 258.013C342.008 255.255 343.804 250.979 343.052 247.716Z" fill="#382A73"/>
<path d="M373.514 298.291C361.317 298.291 351.434 287.64 351.434 274.496V246.805C351.434 238.165 357.926 231.17 365.943 231.17H381.085C389.102 231.17 395.594 238.165 395.594 246.805V274.496C395.594 287.627 385.711 298.291 373.514 298.291Z" fill="#FCC5B6"/>
<path d="M373.514 298.771C368.783 298.771 364.264 297.215 360.426 294.255C360.226 294.104 360.179 293.787 360.32 293.572C360.461 293.357 360.754 293.307 360.954 293.458C364.628 296.292 368.971 297.785 373.514 297.785C378.491 297.785 383.351 295.913 387.201 292.522C387.401 292.345 387.683 292.383 387.835 292.586C388 292.801 387.964 293.104 387.776 293.269C383.762 296.836 378.703 298.771 373.514 298.771Z" fill="#382A73"/>
<path d="M397.073 255.558C399.586 255.154 402.414 256.317 403.518 258.772C404.21 260.315 404.164 262.124 403.94 263.831C403.553 266.855 402.637 269.929 400.677 272.13C398.716 274.344 395.547 275.482 392.941 274.268C390.405 273.091 388.997 269.992 388.974 267.019C388.926 261.529 391.779 256.393 397.073 255.558Z" fill="#FCC5B6"/>
<path d="M364.64 265.337C363.807 265.337 363.125 264.603 363.125 263.705V261.744C363.125 260.846 363.807 260.112 364.64 260.112C365.473 260.112 366.154 260.846 366.154 261.744V263.705C366.154 264.616 365.473 265.337 364.64 265.337Z" fill="#382A73"/>
<path d="M385.229 265.337C384.396 265.337 383.714 264.603 383.714 263.705V261.744C383.714 260.846 384.396 260.112 385.229 260.112C386.063 260.112 386.743 260.846 386.743 261.744V263.705C386.743 264.616 386.063 265.337 385.229 265.337Z" fill="#382A73"/>
<path d="M381.473 249.702C380.64 249.866 379.77 250.106 379.161 250.739C378.55 251.371 378.351 252.535 378.937 253.193C379.372 253.674 380.064 253.724 380.686 253.737C383.116 253.813 385.558 253.901 387.988 253.927C388.88 253.939 389.796 253.927 390.629 253.585C392.976 252.598 392.542 249.879 390.277 249.55C387.354 249.132 384.384 249.12 381.473 249.702Z" fill="#382A73"/>
<path d="M367.55 248.31C368.385 248.474 369.253 248.715 369.864 249.347C370.473 249.98 370.674 251.143 370.086 251.801C369.652 252.282 368.959 252.333 368.337 252.345C365.907 252.421 363.465 252.51 361.036 252.535C360.144 252.548 359.228 252.535 358.394 252.193C356.047 251.207 356.482 248.487 358.747 248.158C361.669 247.741 364.64 247.728 367.55 248.31Z" fill="#382A73"/>
<path d="M385.687 274.407C380.58 274.407 376.425 269.929 376.425 264.426C376.425 258.923 380.58 254.445 385.687 254.445C390.793 254.445 394.948 258.923 394.948 264.426C394.948 269.929 390.793 274.407 385.687 274.407ZM385.687 255.483C381.121 255.483 377.4 259.493 377.4 264.414C377.4 269.334 381.121 273.344 385.687 273.344C390.253 273.344 393.974 269.334 393.974 264.414C393.974 259.493 390.253 255.483 385.687 255.483Z" fill="white"/>
<path d="M378.749 265.134C379.265 266.083 379.888 267.032 379.97 268.12C380.052 269.334 379.406 270.511 378.491 271.219C377.576 271.915 376.414 272.181 375.287 272.181C374.805 272.181 374.266 272.105 373.937 271.712C373.502 271.194 373.655 270.384 373.808 269.701C374.664 266.045 375.052 262.263 374.946 258.506C374.923 257.658 374.875 256.785 375.169 256.001C375.381 255.407 376.731 253.889 376.789 255.166C376.836 256.305 376.66 257.431 376.766 258.582C376.988 260.871 377.657 263.136 378.749 265.134Z" fill="#FCC5B6"/>
<path d="M375.24 272.282C375.204 272.282 375.157 272.282 375.122 272.282C374.875 272.282 374.664 272.067 374.664 271.788C374.664 271.523 374.864 271.295 375.122 271.295C375.169 271.295 375.204 271.295 375.24 271.295C376.05 271.295 376.847 271.27 377.564 271.017C378.362 270.738 378.96 270.194 379.219 269.537C379.618 268.499 379.161 267.26 378.668 266.07C377.435 263.123 375.897 259.454 376.273 255.71C376.296 255.444 376.519 255.242 376.777 255.28C377.024 255.305 377.212 255.546 377.176 255.824C376.824 259.315 378.303 262.845 379.501 265.678C380.076 267.057 380.592 268.525 380.064 269.916C379.712 270.839 378.902 271.586 377.858 271.953C377 272.244 376.132 272.282 375.24 272.282Z" fill="#382A73"/>
<path d="M374.547 280.682C371.706 280.682 368.878 279.607 366.717 277.595C366.529 277.418 366.506 277.115 366.67 276.899C366.835 276.697 367.117 276.672 367.316 276.849C370.216 279.556 374.43 280.429 378.057 279.075C378.291 278.987 378.55 279.126 378.632 279.379C378.714 279.632 378.585 279.91 378.35 279.999C377.129 280.454 375.838 280.682 374.547 280.682Z" fill="#382A73"/>
<path d="M400.067 267.032C399.855 267.032 399.656 266.868 399.621 266.627C399.28 264.502 398.212 262.466 396.686 261.061C396.498 260.884 396.475 260.581 396.639 260.366C396.804 260.151 397.085 260.138 397.284 260.315C398.987 261.896 400.137 264.072 400.524 266.463C400.572 266.729 400.407 266.982 400.149 267.032C400.125 267.032 400.09 267.032 400.067 267.032Z" fill="#382A73"/>
<path d="M350.119 255.558C347.607 255.154 344.778 256.317 343.674 258.772C342.982 260.315 343.029 262.124 343.252 263.831C343.639 266.855 344.555 269.929 346.516 272.13C348.476 274.344 351.645 275.482 354.251 274.268C356.787 273.091 358.195 269.992 358.218 267.019C358.266 261.529 355.413 256.393 350.119 255.558Z" fill="#FCC5B6"/>
<path d="M347.126 267.033C347.102 267.033 347.079 267.033 347.044 267.02C346.798 266.97 346.633 266.717 346.668 266.451C347.055 264.06 348.206 261.884 349.908 260.303C350.096 260.126 350.39 260.151 350.554 260.354C350.718 260.556 350.694 260.872 350.506 261.049C348.981 262.453 347.912 264.49 347.572 266.615C347.537 266.868 347.337 267.033 347.126 267.033Z" fill="#382A73"/>
<path d="M364.733 274.407C359.627 274.407 355.472 269.929 355.472 264.426C355.472 258.923 359.627 254.445 364.733 254.445C369.84 254.445 373.995 258.923 373.995 264.426C373.995 269.929 369.84 274.407 364.733 274.407ZM364.733 255.483C360.167 255.483 356.447 259.493 356.447 264.414C356.447 269.334 360.167 273.344 364.733 273.344C369.3 273.344 373.021 269.334 373.021 264.414C373.021 259.493 369.3 255.483 364.733 255.483Z" fill="white"/>
<path d="M372.857 261.53C372.716 261.53 372.563 261.454 372.469 261.327C372.304 261.099 372.34 260.771 372.551 260.593C374.042 259.354 376.143 259 377.916 259.67C378.174 259.771 378.303 260.062 378.21 260.34C378.115 260.619 377.845 260.758 377.587 260.657C376.12 260.087 374.371 260.391 373.139 261.416C373.068 261.504 372.962 261.53 372.857 261.53Z" fill="white"/>
<path d="M361.787 232.384C364.921 233.32 367.985 234.674 371.237 234.902C375.533 235.205 379.888 233.485 384.102 234.408C386.192 234.864 388.105 235.952 390.007 236.989C391.909 238.026 393.869 239.051 395.969 239.367C398.082 239.683 400.395 239.203 401.898 237.571C403.776 235.534 403.917 232.156 402.813 229.563C401.698 226.957 399.573 225.022 397.32 223.504C390.183 218.684 381.52 217.293 373.103 217.027C368.889 216.888 364.569 217.027 360.59 218.532C357.256 219.797 354.133 222.138 352.337 225.465C351.552 226.919 350.425 229.525 351.351 231.17C352.091 232.485 353.676 231.802 354.827 231.638C357.174 231.309 359.521 231.714 361.787 232.384Z" fill="#382A73"/>
<path d="M632.888 452.81H118.929C114.117 452.81 112.25 446.055 116.288 443.221L159.087 413.178C163.172 410.306 167.938 408.788 172.809 408.788H579.009C583.88 408.788 588.646 410.319 592.731 413.178L635.53 443.221C639.567 446.055 637.701 452.81 632.888 452.81Z" fill="#A6BDFF"/>
<path d="M319.329 314.672L276.578 380.186C272.199 386.903 274.535 396.264 281.461 399.693L337.641 427.51L349.849 408.282L306.182 384.5L339.989 333.9" fill="#5C49D8"/>
<path d="M430.997 315.314L474.63 379.68C479.008 386.397 476.672 395.759 469.746 399.187L413.566 427.004L401.357 407.776L445.025 383.994L411.218 333.394" fill="#5C49D8"/>
<path d="M437.136 431.558H314.681L301.71 354.178C301.217 351.256 303.306 348.574 306.053 348.574H445.776C448.535 348.574 450.613 351.256 450.12 354.178L437.136 431.558Z" fill="white"/>
<path d="M377.763 398.403H374.054C371.424 398.403 369.3 396.113 369.3 393.28C369.3 390.446 371.424 388.156 374.054 388.156H377.763C380.393 388.156 382.517 390.446 382.517 393.28C382.517 396.113 380.393 398.403 377.763 398.403Z" fill="#5C49D8"/>
<path d="M300.547 343.666C300.454 343.666 300.371 343.64 300.289 343.577C300.077 343.425 300.031 343.122 300.172 342.894L316.007 318.214C319.646 312.547 325.093 308.651 331.349 307.246L354.45 302.047C354.697 301.997 354.932 302.161 354.991 302.427C355.038 302.692 354.885 302.945 354.638 303.009L331.537 308.208C325.503 309.561 320.256 313.318 316.759 318.783L300.923 343.463C300.829 343.59 300.688 343.666 300.547 343.666Z" fill="white"/>
<path d="M107.308 245.944L107.531 249.803H107.308V245.944Z" fill="#7F74DB"/>
<path d="M107.308 228.665L108.529 249.803H107.531L107.308 245.945V228.665Z" fill="#8075DC"/>
<path d="M107.308 211.372L109.527 249.803H108.529L107.308 228.665V211.372Z" fill="#8076DC"/>
<path d="M107.308 194.093L110.536 249.803H109.527L107.308 211.373V194.093Z" fill="#8177DD"/>
<path d="M107.308 182.214L107.613 182.188L111.534 249.803H110.536L107.308 194.092V182.214Z" fill="#8178DD"/>
<path d="M107.613 182.188L108.611 182.125L112.544 249.803H111.534L107.613 182.188Z" fill="#8279DE"/>
<path d="M108.611 182.126L109.609 182.05L113.541 249.803H112.543L108.611 182.126Z" fill="#827ADE"/>
<path d="M109.609 182.05L110.607 181.986L114.539 249.803H113.541L109.609 182.05Z" fill="#837BDF"/>
<path d="M110.607 181.986L111.604 181.923L115.549 249.803H114.539L110.607 181.986Z" fill="#847CDF"/>
<path d="M111.604 181.924L112.614 181.848L116.546 249.803H115.549L111.604 181.924Z" fill="#847DE0"/>
<path d="M112.614 181.847L113.612 181.784L117.556 249.803H116.546L112.614 181.847Z" fill="#857EE0"/>
<path d="M113.612 181.784L114.609 181.721L118.554 249.803H117.556L113.612 181.784Z" fill="#857FE1"/>
<path d="M114.609 181.72L115.607 181.645L119.551 249.803H118.554L114.609 181.72Z" fill="#8680E1"/>
<path d="M115.607 181.644L116.605 181.581L120.561 249.803H119.551L115.607 181.644Z" fill="#8681E2"/>
<path d="M116.605 181.582L117.603 181.519L121.559 249.803H120.561L116.605 181.582Z" fill="#8782E2"/>
<path d="M117.603 181.518L118.601 181.442L122.568 249.803H121.559L117.603 181.518Z" fill="#8783E3"/>
<path d="M118.601 181.442L119.598 181.379L123.566 249.803H122.568L118.601 181.442Z" fill="#8884E3"/>
<path d="M119.598 181.379L120.596 181.315L124.564 249.803H123.566L119.598 181.379Z" fill="#8885E4"/>
<path d="M120.596 181.316L121.594 181.24L125.573 249.803H124.564L120.596 181.316Z" fill="#8986E4"/>
<path d="M121.594 181.24L122.592 181.177L126.571 249.803H125.573L121.594 181.24Z" fill="#8987E5"/>
<path d="M122.592 181.177L123.589 181.113L127.581 249.803H126.571L122.592 181.177Z" fill="#8A88E5"/>
<path d="M123.589 181.113L124.587 181.05L128.578 249.803H127.581L123.589 181.113Z" fill="#8B89E6"/>
<path d="M124.587 181.051L125.585 180.975L129.576 249.803H128.578L124.587 181.051Z" fill="#8B8AE6"/>
<path d="M125.585 180.974L126.594 180.911L130.586 249.803H129.576L125.585 180.974Z" fill="#8C8BE7"/>
<path d="M126.595 180.911L127.592 180.848L131.583 249.803H130.586L126.595 180.911Z" fill="#8C8CE7"/>
<path d="M127.592 180.847L128.59 180.771L132.593 249.803H131.583L127.592 180.847Z" fill="#8D8DE8"/>
<path d="M128.59 180.772L129.588 180.709L133.591 249.753L132.828 249.803H132.593L128.59 180.772Z" fill="#8D8EE8"/>
<path d="M130.584 180.65L129.588 180.717L133.591 249.756L134.587 249.688L130.584 180.65Z" fill="#8E8FE9"/>
<path d="M131.582 180.586L130.586 180.653L134.59 249.692L135.585 249.625L131.582 180.586Z" fill="#8E90E9"/>
<path d="M132.579 180.511L131.583 180.578L135.587 249.617L136.583 249.55L132.579 180.511Z" fill="#8F91EA"/>
<path d="M133.577 180.448L132.581 180.515L136.585 249.553L137.581 249.486L133.577 180.448Z" fill="#8F92EA"/>
<path d="M134.575 180.384L133.579 180.451L137.583 249.49L138.579 249.423L134.575 180.384Z" fill="#9093EB"/>
<path d="M135.584 180.308L134.588 180.375L138.592 249.414L139.588 249.347L135.584 180.308Z" fill="#9094EB"/>
<path d="M136.582 180.244L135.586 180.312L139.59 249.35L140.586 249.283L136.582 180.244Z" fill="#9196EC"/>
<path d="M137.58 180.181L136.584 180.248L140.588 249.287L141.584 249.22L137.58 180.181Z" fill="#9297EC"/>
<path d="M138.577 180.106L137.582 180.173L141.585 249.212L142.581 249.145L138.577 180.106Z" fill="#9298ED"/>
<path d="M139.575 180.042L138.58 180.109L142.583 249.148L143.579 249.081L139.575 180.042Z" fill="#9399ED"/>
<path d="M140.573 179.979L139.578 180.046L143.581 249.085L144.577 249.018L140.573 179.979Z" fill="#939AEE"/>
<path d="M141.571 179.904L140.575 179.971L144.579 249.009L145.575 248.942L141.571 179.904Z" fill="#949BEE"/>
<path d="M142.569 179.84L141.573 179.907L145.577 248.946L146.572 248.879L142.569 179.84Z" fill="#949CEF"/>
<path d="M143.567 179.777L142.571 179.844L146.575 248.883L147.571 248.816L143.567 179.777Z" fill="#959DEF"/>
<path d="M144.565 179.714L143.569 179.781L147.573 248.82L148.568 248.753L144.565 179.714Z" fill="#959EF0"/>
<path d="M145.562 179.638L144.566 179.705L148.57 248.744L149.566 248.677L145.562 179.638Z" fill="#969FF0"/>
<path d="M146.56 179.575L145.565 179.642L149.568 248.68L150.564 248.613L146.56 179.575Z" fill="#96A0F1"/>
<path d="M146.562 179.57L146.985 179.532H147.559L151.563 248.538L150.565 248.601L146.562 179.57Z" fill="#97A1F1"/>
<path d="M148.569 179.532L152.56 248.475L151.563 248.538L147.559 179.532H148.569Z" fill="#97A2F2"/>
<path d="M149.566 179.532L153.558 248.399L152.56 248.475L148.569 179.532H149.566Z" fill="#98A3F2"/>
<path d="M150.564 179.532L154.556 248.336L153.558 248.399L149.566 179.532H150.564Z" fill="#99A4F3"/>
<path d="M151.574 179.532L155.553 248.272L154.556 248.336L150.565 179.532H151.574Z" fill="#99A5F3"/>
<path d="M152.572 179.532L156.551 248.196L155.553 248.272L151.574 179.532H152.572Z" fill="#9AA6F4"/>
<path d="M153.581 179.532L157.56 248.133L156.551 248.196L152.572 179.532H153.581Z" fill="#9AA7F4"/>
<path d="M154.579 179.532L158.558 248.07L157.56 248.133L153.581 179.532H154.579Z" fill="#9BA8F5"/>
<path d="M155.577 179.532L159.557 247.994L158.558 248.07L154.579 179.532H155.577Z" fill="#9BA9F5"/>
<path d="M156.586 179.532L160.554 247.931L159.557 247.994L155.577 179.532H156.586Z" fill="#9CAAF6"/>
<path d="M157.585 179.532L161.552 247.868L160.554 247.931L156.586 179.532H157.585Z" fill="#9CABF6"/>
<path d="M158.594 179.532L162.55 247.792L161.552 247.868L157.584 179.532H158.594Z" fill="#9DACF7"/>
<path d="M159.592 179.532L163.547 247.728L162.55 247.792L158.594 179.532H159.592Z" fill="#9DADF7"/>
<path d="M160.589 179.532L164.545 247.665L163.547 247.728L159.592 179.532H160.589Z" fill="#9EAEF8"/>
<path d="M162.596 179.532L166.54 247.526L165.543 247.589L161.599 179.532H162.596Z" fill="#9FB0F9"/>
<path d="M163.606 179.532L167.538 247.463L166.54 247.526L162.596 179.532H163.606Z" fill="#A0B1F9"/>
<path d="M164.603 179.532L168.536 247.387L167.538 247.463L163.606 179.532H164.603Z" fill="#A0B2FA"/>
<path d="M165.602 179.532L169.534 247.324L168.537 247.387L164.604 179.532H165.602Z" fill="#A1B3FA"/>
<path d="M166.611 179.532L170.532 247.26L169.534 247.324L165.602 179.532H166.611Z" fill="#A1B4FB"/>
<path d="M167.609 179.532L171.541 247.184L170.532 247.26L166.611 179.532H167.609Z" fill="#A2B5FB"/>
<path d="M168.618 179.532L172.504 246.565V247.121L171.541 247.184L167.609 179.532H168.618Z" fill="#A2B6FC"/>
<path d="M169.616 179.532L172.504 229.272V246.565L168.618 179.532H169.616Z" fill="#A3B7FC"/>
<path d="M170.625 179.532L172.504 211.992V229.272L169.616 179.532H170.625Z" fill="#A3B8FD"/>
<path d="M171.623 179.532L172.504 194.7V211.992L170.625 179.532H171.623Z" fill="#A4B9FD"/>
<path d="M172.504 194.7L171.623 179.532H172.504V194.7Z" fill="#A4BAFE"/>
<path d="M137.875 222.517C139.882 222.34 141.42 221.796 142.477 220.911C143.533 220.012 143.991 218.684 143.85 216.913C143.768 215.889 143.521 215.054 143.111 214.408C142.7 213.763 142.171 213.219 141.538 212.802C140.904 212.384 140.188 212.043 139.389 211.777C138.591 211.512 137.758 211.233 136.889 210.942C135.786 210.588 134.788 210.209 133.908 209.804C133.027 209.399 132.264 208.931 131.619 208.374C130.973 207.83 130.468 207.173 130.093 206.426C129.717 205.68 129.494 204.782 129.412 203.732C129.224 201.354 129.823 199.481 131.184 198.115C132.558 196.749 134.541 195.952 137.147 195.712C137.84 195.649 138.533 195.636 139.213 195.686C139.894 195.737 140.528 195.813 141.127 195.939C141.725 196.066 142.277 196.205 142.77 196.382C143.275 196.559 143.698 196.749 144.038 196.951L143.322 199.317C142.559 198.849 141.655 198.495 140.599 198.267C139.542 198.039 138.415 197.976 137.23 198.09C136.408 198.166 135.668 198.318 134.999 198.558C134.33 198.798 133.767 199.127 133.297 199.557C132.828 199.987 132.476 200.519 132.241 201.126C132.006 201.746 131.912 202.467 131.983 203.289C132.053 204.149 132.252 204.858 132.593 205.414C132.933 205.971 133.391 206.452 133.955 206.831C134.518 207.211 135.175 207.54 135.927 207.83C136.678 208.109 137.488 208.4 138.356 208.703C139.413 209.07 140.411 209.437 141.35 209.804C142.289 210.183 143.122 210.639 143.838 211.195C144.554 211.752 145.153 212.448 145.611 213.295C146.08 214.143 146.362 215.205 146.456 216.496C146.656 219.013 145.987 220.974 144.461 222.378C142.934 223.782 140.775 224.604 137.993 224.857C136.995 224.946 136.091 224.959 135.258 224.895C134.424 224.832 133.685 224.731 133.015 224.592C132.358 224.453 131.795 224.288 131.325 224.111C130.856 223.934 130.503 223.782 130.233 223.643L130.867 221.202C131.126 221.341 131.478 221.492 131.912 221.67C132.346 221.847 132.863 222.011 133.45 222.163C134.037 222.315 134.694 222.416 135.422 222.492C136.208 222.593 137.007 222.593 137.875 222.517Z" fill="white"/>
<path d="M139.483 230.461C139.143 230.486 138.838 230.22 138.814 229.854L138.333 223.605C138.31 223.238 138.556 222.909 138.896 222.884C139.237 222.858 139.542 223.124 139.566 223.491L140.047 229.74C140.082 230.107 139.824 230.423 139.483 230.461Z" fill="white"/>
<path d="M136.96 197.9C136.619 197.925 136.314 197.66 136.291 197.293L135.844 191.499C135.821 191.132 136.068 190.803 136.408 190.778C136.748 190.753 137.054 191.018 137.077 191.385L137.523 197.179C137.558 197.533 137.3 197.862 136.96 197.9Z" fill="white"/>
<path d="M138.051 246.451C121.84 246.451 108.024 233.017 106.651 215.307C105.207 196.635 118.119 180.178 135.445 178.622C152.771 177.066 168.043 190.981 169.487 209.652C170.931 228.324 158.018 244.781 140.692 246.337C139.812 246.413 138.92 246.451 138.051 246.451ZM138.086 179.052C137.23 179.052 136.349 179.09 135.48 179.166C118.436 180.696 105.735 196.888 107.167 215.256C108.588 233.624 123.613 247.311 140.657 245.768C157.701 244.237 170.403 228.045 168.97 209.677C167.621 192.271 154.028 179.052 138.086 179.052Z" fill="#382A73"/>
<path d="M372.41 127.515C392.858 127.515 409.434 109.652 409.434 87.6167C409.434 65.5816 392.858 47.7188 372.41 47.7188C351.963 47.7188 335.388 65.5816 335.388 87.6167C335.388 109.652 351.963 127.515 372.41 127.515Z" fill="#FFC96B"/>
<path d="M389.431 123.189C389.291 123.189 389.15 123.088 389.091 122.936C389.021 122.734 389.114 122.519 389.303 122.443C403.623 116.738 413.249 101.836 413.249 85.3782C413.249 63.5948 396.804 45.8722 376.59 45.8722C370.85 45.8722 365.356 47.2637 360.261 49.9961C360.085 50.0973 359.874 50.0087 359.78 49.819C359.686 49.6292 359.768 49.4015 359.944 49.3003C365.145 46.5047 370.744 45.0879 376.59 45.0879C397.202 45.0879 413.965 63.1521 413.965 85.3655C413.965 93.7651 411.594 101.798 407.11 108.629C402.72 115.308 396.651 120.33 389.56 123.151C389.514 123.176 389.467 123.189 389.431 123.189Z" fill="#382A73"/>
<path d="M376.59 125.656C355.977 125.656 339.214 107.591 339.214 85.3779C339.214 77.75 341.209 70.3118 344.966 63.8856C348.629 57.6365 353.805 52.5892 359.933 49.3002C360.109 49.199 360.32 49.2875 360.414 49.4773C360.507 49.667 360.426 49.8947 360.25 49.9959C347.713 56.7257 339.918 70.2865 339.918 85.3779C339.918 107.161 356.364 124.884 376.578 124.884C380.957 124.884 385.229 124.062 389.303 122.442C389.49 122.367 389.69 122.468 389.76 122.67C389.831 122.873 389.736 123.088 389.549 123.163C385.405 124.808 381.05 125.656 376.59 125.656Z" fill="white"/>
<path d="M376.414 89.3124C374.875 89.3124 373.62 87.9589 373.62 86.3017C373.62 84.6446 374.875 83.291 376.414 83.291C377.951 83.291 379.207 84.6446 379.207 86.3017C379.207 87.9715 377.951 89.3124 376.414 89.3124ZM376.414 84.0753C375.263 84.0753 374.336 85.0747 374.336 86.3144C374.336 87.5541 375.263 88.5534 376.414 88.5534C377.564 88.5534 378.491 87.5541 378.491 86.3144C378.491 85.0747 377.552 84.0753 376.414 84.0753Z" fill="#382A73"/>
<path d="M376.414 83.6958C376.213 83.6958 376.061 83.5187 376.061 83.3163V58.5856C376.061 58.3705 376.226 58.2061 376.414 58.2061C376.601 58.2061 376.766 58.3832 376.766 58.5856V83.3037C376.766 83.5314 376.613 83.6958 376.414 83.6958Z" fill="#382A73"/>
<path d="M363.208 99.7994C363.102 99.7994 363.008 99.7488 362.937 99.6603C362.809 99.4958 362.821 99.2555 362.973 99.1163L374.676 88.25C374.829 88.1108 375.051 88.1235 375.181 88.2879C375.31 88.4524 375.298 88.6927 375.146 88.8319L363.442 99.6982C363.372 99.7741 363.289 99.7994 363.208 99.7994Z" fill="#382A73"/>
<path d="M415.667 225.287L415.866 232.409H415.667V225.287Z" fill="#7F73DB"/>
<path d="M415.69 205.465L416.454 232.409H415.866L415.667 225.287V205.465H415.69Z" fill="#7F74DB"/>
<path d="M416.289 205.465L417.04 232.409H416.454L415.69 205.465H416.289Z" fill="#8075DC"/>
<path d="M416.876 205.465L417.627 232.409H417.04L416.289 205.465H416.876Z" fill="#8076DC"/>
<path d="M417.463 205.465L418.226 232.409H417.627L416.876 205.465H417.463Z" fill="#8177DD"/>
<path d="M418.05 205.465L418.813 232.409H418.226L417.463 205.465H418.05Z" fill="#8178DD"/>
<path d="M418.637 205.465L419.4 232.409H418.813L418.05 205.465H418.637Z" fill="#8279DE"/>
<path d="M419.236 205.465L419.987 232.409H419.4L418.637 205.465H419.236Z" fill="#827ADE"/>
<path d="M419.822 205.465L420.574 232.409H419.986L419.236 205.465H419.822Z" fill="#837BDF"/>
<path d="M420.409 205.465L421.16 232.409H420.574L419.822 205.465H420.409Z" fill="#847CDF"/>
<path d="M420.996 205.465L421.759 232.409H421.161L420.409 205.465H420.996Z" fill="#847DE0"/>
<path d="M421.583 205.465L422.346 232.409H421.759L420.997 205.465H421.583Z" fill="#857EE0"/>
<path d="M422.17 205.465L422.933 232.409H422.346L421.583 205.465H422.17Z" fill="#857FE1"/>
<path d="M422.768 205.465L423.52 232.409H422.933L422.17 205.465H422.768Z" fill="#8680E1"/>
<path d="M423.356 205.465L424.107 232.409H423.52L422.769 205.465H423.356Z" fill="#8681E2"/>
<path d="M423.943 205.465L424.705 232.409H424.107L423.356 205.465H423.943Z" fill="#8782E2"/>
<path d="M424.529 205.465L425.293 232.409H424.705L423.943 205.465H424.529Z" fill="#8783E3"/>
<path d="M425.117 205.465L425.88 232.409H425.293L424.529 205.465H425.117Z" fill="#8884E3"/>
<path d="M425.703 205.465L426.466 232.409H425.879L425.117 205.465H425.703Z" fill="#8885E4"/>
<path d="M426.302 205.465L427.054 232.409H426.466L425.703 205.465H426.302Z" fill="#8986E4"/>
<path d="M426.889 205.465L427.64 232.409H427.054L426.302 205.465H426.889Z" fill="#8987E5"/>
<path d="M427.476 205.465L428.239 232.409H427.64L426.889 205.465H427.476Z" fill="#8A88E5"/>
<path d="M428.063 205.465L428.826 232.409H428.239L427.476 205.465H428.063Z" fill="#8B89E6"/>
<path d="M428.649 205.465L429.413 232.409H428.825L428.063 205.465H428.649Z" fill="#8B8AE6"/>
<path d="M429.248 205.465L430 232.409H429.413L428.649 205.465H429.248Z" fill="#8C8BE7"/>
<path d="M429.836 205.465L430.586 232.409H430L429.248 205.465H429.836Z" fill="#8C8CE7"/>
<path d="M430.422 205.465L431.174 232.409H430.586L429.836 205.465H430.422Z" fill="#8D8DE8"/>
<path d="M431.009 205.465L431.773 232.409H431.174L430.422 205.465H431.009Z" fill="#8D8EE8"/>
<path d="M431.596 205.465L432.359 232.409H431.772L431.009 205.465H431.596Z" fill="#8E8FE9"/>
<path d="M432.183 205.465L432.946 232.409H432.359L431.596 205.465H432.183Z" fill="#8E90E9"/>
<path d="M432.782 205.465L433.533 232.409H432.946L432.183 205.465H432.782Z" fill="#8F91EA"/>
<path d="M433.368 205.465L434.12 232.409H433.533L432.782 205.465H433.368Z" fill="#8F92EA"/>
<path d="M433.956 205.465L434.719 232.409H434.12L433.368 205.465H433.956Z" fill="#9093EB"/>
<path d="M434.542 205.465L435.305 232.409H434.718L433.955 205.465H434.542Z" fill="#9094EB"/>
<path d="M435.129 205.465L435.893 232.409H435.305L434.542 205.465H435.129Z" fill="#9196EC"/>
<path d="M435.728 205.465L436.479 232.409H435.893L435.129 205.465H435.728Z" fill="#9297EC"/>
<path d="M436.315 205.465L437.066 232.409H436.479L435.728 205.465H436.315Z" fill="#9298ED"/>
<path d="M436.902 205.465L437.654 232.409H437.066L436.315 205.465H436.902Z" fill="#9399ED"/>
<path d="M437.488 205.465L438.252 232.409H437.653L436.902 205.465H437.488Z" fill="#939AEE"/>
<path d="M438.076 205.465L438.839 232.409H438.252L437.489 205.465H438.076Z" fill="#949BEE"/>
<path d="M438.663 205.465L439.425 232.409H438.839L438.075 205.465H438.663Z" fill="#949CEF"/>
<path d="M439.261 205.465L440.013 232.409H439.425L438.663 205.465H439.261Z" fill="#959DEF"/>
<path d="M439.848 205.465L440.599 232.409H440.013L439.261 205.465H439.848Z" fill="#959EF0"/>
<path d="M440.435 205.465L441.186 232.409H440.599L439.848 205.465H440.435Z" fill="#969FF0"/>
<path d="M441.022 205.465L441.785 232.409H441.186L440.436 205.465H441.022Z" fill="#96A0F1"/>
<path d="M441.609 205.465L442.372 232.409H441.785L441.022 205.465H441.609Z" fill="#97A1F1"/>
<path d="M442.196 205.465L442.959 232.409H442.373L441.609 205.465H442.196Z" fill="#97A2F2"/>
<path d="M442.795 205.465L443.546 232.409H442.959L442.196 205.465H442.795Z" fill="#98A3F2"/>
<path d="M443.382 205.465L444.133 232.409H443.546L442.795 205.465H443.382Z" fill="#99A4F3"/>
<path d="M443.968 205.465L444.732 232.409H444.133L443.382 205.465H443.968Z" fill="#99A5F3"/>
<path d="M444.556 205.465L445.318 232.409H444.732L443.968 205.465H444.556Z" fill="#9AA6F4"/>
<path d="M445.142 205.465L445.905 232.409H445.318L444.556 205.465H445.142Z" fill="#9AA7F4"/>
<path d="M445.741 205.465L446.493 232.409H445.905L445.142 205.465H445.741Z" fill="#9BA8F5"/>
<path d="M446.328 205.465L447.079 232.409H446.493L445.741 205.465H446.328Z" fill="#9BA9F5"/>
<path d="M446.915 205.465L447.666 232.409H447.079L446.328 205.465H446.915Z" fill="#9CAAF6"/>
<path d="M447.502 205.465L448.264 232.409H447.666L446.915 205.465H447.502Z" fill="#9CABF6"/>
<path d="M448.088 205.465L448.852 232.409H448.264L447.502 205.465H448.088Z" fill="#9DACF7"/>
<path d="M448.676 205.465L449.439 232.409H448.852L448.088 205.465H448.676Z" fill="#9DADF7"/>
<path d="M449.275 205.465L450.025 232.409H449.439L448.676 205.465H449.275Z" fill="#9EAEF8"/>
<path d="M449.861 205.465L450.613 232.409H450.025L449.275 205.465H449.861Z" fill="#9EAFF8"/>
<path d="M450.448 205.465L451.212 232.409H450.613L449.861 205.465H450.448Z" fill="#9FB0F9"/>
<path d="M451.035 205.465L451.798 232.409H451.211L450.448 205.465H451.035Z" fill="#A0B1F9"/>
<path d="M451.622 205.465L452.385 232.409H451.798L451.035 205.465H451.622Z" fill="#A0B2FA"/>
<path d="M452.209 205.465L452.972 232.409H452.385L451.622 205.465H452.209Z" fill="#A1B3FA"/>
<path d="M452.807 205.465L453.559 232.409H452.972L452.208 205.465H452.807Z" fill="#A1B4FB"/>
<path d="M453.395 205.465L454.146 232.409H453.559L452.807 205.465H453.395Z" fill="#A2B5FB"/>
<path d="M453.981 205.465L454.404 220.62V232.409H454.145L453.395 205.465H453.981Z" fill="#A2B6FC"/>
<path d="M454.404 220.619L453.981 205.465H454.404V220.619Z" fill="#A3B7FC"/>
<path d="M434.53 221.315C433.287 221.315 432.042 220.86 431.021 219.962L418.93 209.285C418.848 209.209 418.836 209.07 418.907 208.981C418.977 208.893 419.106 208.88 419.188 208.956L431.279 219.633C433.075 221.214 435.634 221.302 437.513 219.848L450.636 209.664C450.73 209.589 450.859 209.614 450.918 209.715C450.988 209.816 450.965 209.955 450.87 210.019L437.747 220.202C436.796 220.948 435.657 221.315 434.53 221.315Z" fill="white"/>
<path d="M418.292 208.246C420.035 207.21 420.669 204.848 419.708 202.97C418.746 201.092 416.554 200.41 414.812 201.446C413.069 202.481 412.436 204.844 413.397 206.722C414.358 208.6 416.549 209.282 418.292 208.246Z" fill="#FFC96B"/>
<path d="M508.553 145.226L508.882 147.869H508.553V145.226Z" fill="#7F74DB"/>
<path d="M508.553 138.938L509.669 147.869H508.882L508.553 145.226V138.938Z" fill="#8075DC"/>
<path d="M508.553 132.651L510.444 147.869H509.669L508.553 138.938V132.651Z" fill="#8076DC"/>
<path d="M508.553 126.364L511.23 147.869H510.444L508.553 132.651V126.364Z" fill="#8177DD"/>
<path d="M508.553 120.077L512.005 147.869H511.23L508.553 126.364V120.077Z" fill="#8178DD"/>
<path d="M508.73 115.182L512.791 147.869H512.005L508.553 120.077V115.182H508.73Z" fill="#8279DE"/>
<path d="M509.504 115.182L513.566 147.869H512.791L508.729 115.182H509.504Z" fill="#827ADE"/>
<path d="M510.291 115.182L514.353 147.869H513.566L509.504 115.182H510.291Z" fill="#837BDF"/>
<path d="M511.066 115.182L515.128 147.869H514.353L510.291 115.182H511.066Z" fill="#847CDF"/>
<path d="M511.853 115.182L515.174 142V147.869H515.128L511.066 115.182H511.853Z" fill="#847DE0"/>
<path d="M512.627 115.182L515.174 135.713V142L511.853 115.182H512.627Z" fill="#857EE0"/>
<path d="M513.413 115.182L515.174 129.426V135.713L512.627 115.182H513.413Z" fill="#857FE1"/>
<path d="M514.188 115.182L515.174 123.138V129.426L513.413 115.182H514.188Z" fill="#8680E1"/>
<path d="M514.975 115.182L515.174 116.839V123.138L514.188 115.182H514.975Z" fill="#8681E2"/>
<path d="M515.174 116.839L514.975 115.182H515.174V116.839Z" fill="#8782E2"/>
<path d="M520.164 144.403L520.609 148.034H520.164V144.403Z" fill="#8783E3"/>
<path d="M520.164 138.116L521.396 148.034H520.609L520.164 144.403V138.116Z" fill="#8884E3"/>
<path d="M520.164 131.829L522.171 148.034H521.396L520.164 138.116V131.829Z" fill="#8885E4"/>
<path d="M520.164 125.542L522.957 148.034H522.171L520.164 131.829V125.542Z" fill="#8986E4"/>
<path d="M520.164 119.255L523.731 148.034H522.957L520.164 125.542V119.255Z" fill="#8987E5"/>
<path d="M520.164 112.968L524.518 148.034H523.731L520.164 119.255V112.968Z" fill="#8A88E5"/>
<path d="M520.164 106.668L525.293 148.033H524.518L520.164 112.968V106.668Z" fill="#8B89E6"/>
<path d="M520.539 103.43L526.08 148.034H525.293L520.164 106.668V103.43H520.539Z" fill="#8B8AE6"/>
<path d="M521.314 103.43L526.854 148.034H526.08L520.539 103.43H521.314Z" fill="#8C8BE7"/>
<path d="M522.1 103.43L526.936 142.379V148.034H526.854L521.313 103.43H522.1Z" fill="#8C8CE7"/>
<path d="M522.875 103.43L526.936 136.092V142.379L522.1 103.43H522.875Z" fill="#8D8DE8"/>
<path d="M523.661 103.43L526.936 129.805V136.092L522.875 103.43H523.661Z" fill="#8D8EE8"/>
<path d="M524.436 103.43L526.936 123.505V129.805L523.661 103.43H524.436Z" fill="#8E8FE9"/>
<path d="M525.222 103.43L526.936 117.218V123.505L524.436 103.43H525.222Z" fill="#8E90E9"/>
<path d="M525.997 103.43L526.936 110.931V117.218L525.222 103.43H525.997Z" fill="#8F91EA"/>
<path d="M526.784 103.43L526.936 104.644V110.931L525.997 103.43H526.784Z" fill="#8F92EA"/>
<path d="M526.936 104.644L526.784 103.43H526.936V104.644Z" fill="#9093EB"/>
<path d="M557.457 143.112L558.137 148.577H557.457V143.112Z" fill="#A1B4FB"/>
<path d="M557.457 136.812L558.912 148.577H558.137L557.457 143.112V136.812Z" fill="#A2B5FB"/>
<path d="M557.457 130.525L559.698 148.577H558.912L557.457 136.812V130.525Z" fill="#A2B6FC"/>
<path d="M557.457 124.239L560.473 148.578H559.698L557.457 130.526V124.239Z" fill="#A3B7FC"/>
<path d="M557.457 117.952L561.26 148.578H560.473L557.457 124.239V117.952Z" fill="#A3B8FD"/>
<path d="M557.457 111.665L562.035 148.578H561.26L557.457 117.952V111.665Z" fill="#A4B9FD"/>
<path d="M557.457 105.378L562.82 148.578H562.035L557.457 111.665V105.378Z" fill="#A4BAFE"/>
<path d="M557.457 99.0781L563.595 148.578H562.82L557.457 105.378V99.0781Z" fill="#A5BBFE"/>
<path d="M557.55 93.5752L564.359 148.413V148.577H563.595L557.457 99.0779V93.5752H557.55Z" fill="#A5BCFF"/>
<path d="M558.337 93.5752L564.359 142.126V148.413L557.55 93.5752H558.337Z" fill="#A6BDFF"/>
<path d="M564.359 142.126L558.337 93.5752H564.359V142.126Z" fill="#A6BDFF"/>
<path d="M532.278 147.756L532.337 148.211H532.278V147.756Z" fill="#8F92EA"/>
<path d="M532.278 141.469L533.123 148.211H532.336L532.278 147.756V141.469Z" fill="#9093EB"/>
<path d="M532.278 135.182L533.897 148.211H533.123L532.278 141.469V135.182Z" fill="#9094EB"/>
<path d="M532.278 128.895L534.683 148.211H533.897L532.278 135.182V128.895Z" fill="#9196EC"/>
<path d="M532.278 122.607L535.458 148.211H534.683L532.278 128.894V122.607Z" fill="#9297EC"/>
<path d="M532.278 116.308L536.245 148.211H535.458L532.278 122.607V116.308Z" fill="#9298ED"/>
<path d="M532.688 113.31L537.02 148.211H536.245L532.278 116.308V113.31H532.688Z" fill="#9399ED"/>
<path d="M533.475 113.31L537.806 148.211H537.02L532.688 113.31H533.475Z" fill="#939AEE"/>
<path d="M534.25 113.31L538.581 148.211H537.806L533.475 113.31H534.25Z" fill="#949BEE"/>
<path d="M535.035 113.31L538.933 144.757V148.211H538.581L534.25 113.31H535.035Z" fill="#949CEF"/>
<path d="M535.81 113.31L538.933 138.458V144.757L535.036 113.31H535.81Z" fill="#959DEF"/>
<path d="M536.597 113.31L538.933 132.171V138.458L535.81 113.31H536.597Z" fill="#959EF0"/>
<path d="M537.372 113.31L538.933 125.884V132.171L536.597 113.31H537.372Z" fill="#969FF0"/>
<path d="M538.159 113.31L538.933 119.597V125.884L537.372 113.31H538.159Z" fill="#96A0F1"/>
<path d="M538.933 119.597L538.159 113.31H538.933V119.597Z" fill="#97A1F1"/>
<path d="M544.72 147.324L544.849 148.399H544.72V147.324Z" fill="#98A3F2"/>
<path d="M544.72 141.037L545.624 148.399H544.849L544.72 147.324V141.037Z" fill="#99A4F3"/>
<path d="M544.72 134.751L546.41 148.4H545.624L544.72 141.038V134.751Z" fill="#99A5F3"/>
<path d="M544.72 128.464L547.185 148.4H546.41L544.72 134.751V128.464Z" fill="#9AA6F4"/>
<path d="M544.72 122.164L547.972 148.4H547.185L544.72 128.464V122.164Z" fill="#9AA7F4"/>
<path d="M544.72 115.877L548.746 148.4H547.972L544.72 122.164V115.877Z" fill="#9BA8F5"/>
<path d="M544.72 109.59L549.533 148.4H548.746L544.72 115.877V109.59Z" fill="#9BA9F5"/>
<path d="M544.72 103.303L550.308 148.4H549.533L544.72 109.59V103.303Z" fill="#9CAAF6"/>
<path d="M544.849 98.0908L551.094 148.4H550.308L544.72 103.303V98.0908H544.849Z" fill="#9CABF6"/>
<path d="M545.624 98.0908L551.552 145.87V148.4H551.094L544.85 98.0908H545.624Z" fill="#9DACF7"/>
<path d="M546.41 98.0908L551.552 139.583V145.87L545.624 98.0908H546.41Z" fill="#9DADF7"/>
<path d="M547.185 98.0908L551.552 133.283V139.583L546.41 98.0908H547.185Z" fill="#9EAEF8"/>
<path d="M547.972 98.0908L551.552 126.996V133.283L547.185 98.0908H547.972Z" fill="#9EAFF8"/>
<path d="M548.746 98.0908L551.552 120.709V126.996L547.972 98.0908H548.746Z" fill="#9FB0F9"/>
<path d="M549.533 98.0908L551.552 114.422V120.709L548.746 98.0908H549.533Z" fill="#A0B1F9"/>
<path d="M550.308 98.0908L551.552 108.135V114.422L549.533 98.0908H550.308Z" fill="#A0B2FA"/>
<path d="M551.094 98.0908L551.552 101.848V108.135L550.308 98.0908H551.094Z" fill="#A1B3FA"/>
<path d="M551.552 101.848L551.094 98.0908H551.552V101.848Z" fill="#A1B4FB"/>
<path d="M536.327 96.4474C536.245 96.4474 536.174 96.4095 536.127 96.3336L527.323 82.5577L505.549 94.006C505.431 94.0692 505.278 94.0186 505.22 93.8795C505.162 93.753 505.208 93.5885 505.338 93.5253L527.3 81.9758C527.406 81.9126 527.547 81.9505 527.605 82.0644L536.398 95.8276L559.616 80.4452C559.734 80.3693 559.886 80.4072 559.957 80.5337C560.027 80.6602 559.992 80.8247 559.874 80.9006L536.444 96.4095C536.409 96.4348 536.363 96.4474 536.327 96.4474Z" fill="#382A73"/>
<path d="M558.031 77.0167L561.366 83.9995L566.072 76.498L558.031 77.0167Z" fill="#382A73"/>
<path d="M254.767 144.644H188.809L180.146 91.21L246.104 91.2226L254.767 144.644Z" fill="#382A73"/>
<path d="M197.072 93.3859C196.979 93.3859 196.896 93.2973 196.896 93.1961C196.896 93.0949 196.979 93.0064 197.072 93.0064C198.646 93.0064 200.171 91.1595 200.453 88.8825C200.618 87.5922 200.347 86.3778 199.725 85.6061C199.303 85.0875 198.763 84.8092 198.153 84.8092C198.058 84.8092 197.977 84.7206 197.977 84.6194C197.977 84.5182 198.058 84.4297 198.153 84.4297C198.857 84.4297 199.491 84.7459 199.984 85.3531C200.676 86.2133 200.97 87.5163 200.794 88.9204C200.488 91.3998 198.81 93.3859 197.072 93.3859Z" fill="#382A73"/>
<path d="M205.008 93.3859C204.914 93.3859 204.832 93.2973 204.832 93.1961C204.832 93.0949 204.914 93.0064 205.008 93.0064C206.58 93.0064 208.107 91.1595 208.388 88.8825C208.552 87.5922 208.283 86.3778 207.661 85.6061C207.238 85.0875 206.698 84.8092 206.087 84.8092C205.994 84.8092 205.911 84.7206 205.911 84.6194C205.911 84.5182 205.994 84.4297 206.087 84.4297C206.792 84.4297 207.426 84.7459 207.919 85.3531C208.612 86.2133 208.905 87.5163 208.729 88.9204C208.424 91.3998 206.756 93.3859 205.008 93.3859Z" fill="#382A73"/>
<path d="M212.954 93.3859C212.861 93.3859 212.778 93.2973 212.778 93.1961C212.778 93.0949 212.861 93.0064 212.954 93.0064C214.528 93.0064 216.053 91.1595 216.335 88.8825C216.5 87.5922 216.229 86.3778 215.608 85.6061C215.185 85.0875 214.645 84.8092 214.035 84.8092C213.94 84.8092 213.859 84.7206 213.859 84.6194C213.859 84.5182 213.94 84.4297 214.035 84.4297C214.739 84.4297 215.373 84.7459 215.866 85.3531C216.558 86.2133 216.852 87.5163 216.676 88.9204C216.37 91.3998 214.704 93.3859 212.954 93.3859Z" fill="#382A73"/>
<path d="M220.902 93.3859C220.808 93.3859 220.726 93.2973 220.726 93.1961C220.726 93.0949 220.808 93.0064 220.902 93.0064C222.475 93.0064 224.001 91.1595 224.283 88.8825C224.447 87.5922 224.177 86.3778 223.554 85.6061C223.132 85.0875 222.592 84.8092 221.982 84.8092C221.888 84.8092 221.806 84.7206 221.806 84.6194C221.806 84.5182 221.888 84.4297 221.982 84.4297C222.686 84.4297 223.32 84.7459 223.813 85.3531C224.505 86.2133 224.799 87.5163 224.623 88.9204C224.318 91.3998 222.639 93.3859 220.902 93.3859Z" fill="#382A73"/>
<path d="M228.837 93.3859C228.743 93.3859 228.661 93.2973 228.661 93.1961C228.661 93.0949 228.743 93.0064 228.837 93.0064C230.41 93.0064 231.936 91.1595 232.217 88.8825C232.382 87.5922 232.112 86.3778 231.49 85.6061C231.067 85.0875 230.527 84.8092 229.917 84.8092C229.823 84.8092 229.741 84.7206 229.741 84.6194C229.741 84.5182 229.823 84.4297 229.917 84.4297C230.621 84.4297 231.255 84.7459 231.748 85.3531C232.441 86.2133 232.734 87.5163 232.558 88.9204C232.253 91.3998 230.586 93.3859 228.837 93.3859Z" fill="#382A73"/>
<path d="M236.784 93.3859C236.69 93.3859 236.608 93.2973 236.608 93.1961C236.608 93.0949 236.69 93.0064 236.784 93.0064C238.357 93.0064 239.883 91.1595 240.165 88.8825C240.329 87.5922 240.059 86.3778 239.437 85.6061C239.014 85.0875 238.475 84.8092 237.864 84.8092C237.77 84.8092 237.688 84.7206 237.688 84.6194C237.688 84.5182 237.77 84.4297 237.864 84.4297C238.568 84.4297 239.202 84.7459 239.695 85.3531C240.387 86.2133 240.681 87.5163 240.505 88.9204C240.2 91.3998 238.533 93.3859 236.784 93.3859Z" fill="#382A73"/>
<path d="M189.126 93.3859C189.032 93.3859 188.949 93.2973 188.949 93.1961C188.949 93.0949 189.032 93.0064 189.126 93.0064C190.698 93.0064 192.225 91.1595 192.506 88.8825C192.67 87.5922 192.401 86.3778 191.779 85.6061C191.356 85.0875 190.816 84.8092 190.205 84.8092C190.112 84.8092 190.029 84.7206 190.029 84.6194C190.029 84.5182 190.112 84.4297 190.205 84.4297C190.909 84.4297 191.543 84.7459 192.036 85.3531C192.73 86.2133 193.022 87.5163 192.846 88.9204C192.541 91.3998 190.874 93.3859 189.126 93.3859Z" fill="#382A73"/>
<path d="M173.396 125.693L173.784 144.643H173.396V125.693Z" fill="#7C6ED8"/>
<path d="M173.889 91.21L174.981 144.644H173.784L173.396 125.694V91.21H173.889Z" fill="#7D6FD9"/>
<path d="M175.087 91.21L176.189 144.644H174.981L173.889 91.21H175.087Z" fill="#7D70D9"/>
<path d="M176.295 91.21L177.399 144.644H176.189L175.087 91.21H176.295Z" fill="#7E71DA"/>
<path d="M177.492 91.21L178.596 144.644H177.399L176.295 91.21H177.492Z" fill="#7E72DA"/>
<path d="M178.702 91.21L179.806 144.644H178.596L177.492 91.21H178.702Z" fill="#7F73DB"/>
<path d="M179.911 91.21L181.003 144.644H179.806L178.702 91.21H179.911Z" fill="#7F74DB"/>
<path d="M181.108 91.21L182.211 144.644H181.003L179.911 91.21H181.108Z" fill="#8075DC"/>
<path d="M182.317 91.21L183.421 144.644H182.211L181.108 91.21H182.317Z" fill="#8076DC"/>
<path d="M183.514 91.21L184.618 144.644H183.421L182.317 91.21H183.514Z" fill="#8177DD"/>
<path d="M184.724 91.21L185.827 144.644H184.618L183.514 91.21H184.724Z" fill="#8178DD"/>
<path d="M185.933 91.21L187.025 144.644H185.827L184.724 91.21H185.933Z" fill="#8279DE"/>
<path d="M187.13 91.21L188.233 144.644H187.025L185.933 91.21H187.13Z" fill="#827ADE"/>
<path d="M188.339 91.21L189.443 144.644H188.233L187.13 91.21H188.339Z" fill="#837BDF"/>
<path d="M189.536 91.21L190.64 144.644H189.442L188.339 91.21H189.536Z" fill="#847CDF"/>
<path d="M190.746 91.21L191.849 144.644H190.64L189.536 91.21H190.746Z" fill="#847DE0"/>
<path d="M191.955 91.21L193.047 144.644H191.849L190.745 91.21H191.955Z" fill="#857EE0"/>
<path d="M193.152 91.21L194.255 144.644H193.047L191.955 91.21H193.152Z" fill="#857FE1"/>
<path d="M194.361 91.21L195.464 144.644H194.255L193.152 91.21H194.361Z" fill="#8680E1"/>
<path d="M195.558 91.21L196.662 144.644H195.464L194.361 91.21H195.558Z" fill="#8681E2"/>
<path d="M196.767 91.21L197.871 144.644H196.662L195.558 91.21H196.767Z" fill="#8782E2"/>
<path d="M197.965 91.21L199.068 144.644H197.871L196.767 91.21H197.965Z" fill="#8783E3"/>
<path d="M199.174 91.21L200.277 144.644H199.068L197.965 91.21H199.174Z" fill="#8884E3"/>
<path d="M200.383 91.21L201.486 144.644H200.277L199.174 91.21H200.383Z" fill="#8885E4"/>
<path d="M201.58 91.21L202.684 144.644H201.486L200.382 91.21H201.58Z" fill="#8986E4"/>
<path d="M202.789 91.21L203.893 144.644H202.684L201.58 91.21H202.789Z" fill="#8987E5"/>
<path d="M203.987 91.21L205.09 144.644H203.893L202.789 91.21H203.987Z" fill="#8A88E5"/>
<path d="M205.196 91.21L206.299 144.644H205.09L203.986 91.21H205.196Z" fill="#8B89E6"/>
<path d="M206.404 91.21L207.496 144.644H206.299L205.196 91.21H206.404Z" fill="#8B8AE6"/>
<path d="M207.602 91.21L208.705 144.644H207.496L206.404 91.21H207.602Z" fill="#8C8BE7"/>
<path d="M208.811 91.21L209.915 144.644H208.705L207.602 91.21H208.811Z" fill="#8C8CE7"/>
<path d="M210.008 91.21L211.112 144.644H209.915L208.811 91.21H210.008Z" fill="#8D8DE8"/>
<path d="M211.218 91.21L212.32 144.644H211.112L210.008 91.21H211.218Z" fill="#8D8EE8"/>
<path d="M212.426 91.21L213.518 144.644H212.321L211.218 91.21H212.426Z" fill="#8E8FE9"/>
<path d="M213.623 91.21L214.727 144.644H213.518L212.426 91.21H213.623Z" fill="#8E90E9"/>
<path d="M214.833 91.21L215.937 144.644H214.727L213.624 91.21H214.833Z" fill="#8F91EA"/>
<path d="M216.03 91.21L217.134 144.644H215.937L214.833 91.21H216.03Z" fill="#8F92EA"/>
<path d="M217.24 91.21L218.342 144.644H217.134L216.03 91.21H217.24Z" fill="#9093EB"/>
<path d="M218.448 91.21L219.54 144.644H218.342L217.24 91.21H218.448Z" fill="#9094EB"/>
<path d="M219.645 91.21L220.749 144.644H219.54L218.448 91.21H219.645Z" fill="#9196EC"/>
<path d="M220.855 91.21L221.958 144.644H220.749L219.645 91.21H220.855Z" fill="#9297EC"/>
<path d="M222.052 91.21L223.156 144.644H221.958L220.855 91.21H222.052Z" fill="#9298ED"/>
<path d="M223.261 91.21L224.364 144.644H223.156L222.052 91.21H223.261Z" fill="#9399ED"/>
<path d="M224.47 91.21L225.562 144.644H224.364L223.261 91.21H224.47Z" fill="#939AEE"/>
<path d="M225.667 91.21L226.771 144.644H225.562L224.47 91.21H225.667Z" fill="#949BEE"/>
<path d="M226.877 91.21L227.98 144.644H226.771L225.667 91.21H226.877Z" fill="#949CEF"/>
<path d="M228.074 91.21L229.178 144.644H227.98L226.877 91.21H228.074Z" fill="#959DEF"/>
<path d="M229.283 91.21L230.386 144.644H229.178L228.074 91.21H229.283Z" fill="#959EF0"/>
<path d="M230.481 91.21L231.583 144.644H230.386L229.283 91.21H230.481Z" fill="#969FF0"/>
<path d="M231.689 91.21L232.793 144.644H231.583L230.481 91.21H231.689Z" fill="#96A0F1"/>
<path d="M232.898 91.21L234.002 144.644H232.793L231.689 91.21H232.898Z" fill="#97A1F1"/>
<path d="M234.096 91.21L235.199 144.644H234.002L232.898 91.21H234.096Z" fill="#97A2F2"/>
<path d="M235.305 91.21L236.408 144.644H235.199L234.096 91.21H235.305Z" fill="#98A3F2"/>
<path d="M236.503 91.21L237.605 144.644H236.408L235.305 91.21H236.503Z" fill="#99A4F3"/>
<path d="M237.711 91.21L238.815 144.644H237.605L236.502 91.21H237.711Z" fill="#99A5F3"/>
<path d="M238.92 91.21L240.012 144.644H238.815L237.711 91.21H238.92Z" fill="#9AA6F4"/>
<path d="M240.118 91.21L241.221 144.644H240.012L238.92 91.21H240.118Z" fill="#9AA7F4"/>
<path d="M241.327 91.21L242.43 144.644H241.221L240.118 91.21H241.327Z" fill="#9BA8F5"/>
<path d="M242.524 91.21L243.627 144.644H242.43L241.327 91.21H242.524Z" fill="#9BA9F5"/>
<path d="M243.733 91.21L244.836 144.644H243.627L242.524 91.21H243.733Z" fill="#9CAAF6"/>
<path d="M244.942 91.21L246.034 144.644H244.837L243.733 91.21H244.942Z" fill="#9CABF6"/>
<path d="M246.034 144.644L244.942 91.21H246.104V144.644H246.034Z" fill="#9DACF7"/>
<path d="M234.178 142.228H179.183L179.207 142.013L184.477 100.331H239.472L239.449 100.546L234.178 142.228ZM179.582 141.848H233.872L239.073 100.698H184.782L179.582 141.848Z" fill="white"/>
<path d="M212.497 108.97H207.626L208.295 103.721H213.166L212.497 108.97Z" fill="white"/>
<path d="M219.669 108.97H214.798L215.467 103.721H220.338L219.669 108.97Z" fill="white"/>
<path d="M226.841 108.97H221.97L222.628 103.721H227.498L226.841 108.97Z" fill="white"/>
<path d="M234.013 108.983H229.142L229.8 103.721H234.671L234.013 108.983Z" fill="white"/>
<path d="M197.19 116.662H192.318L192.987 111.412H197.859L197.19 116.662Z" fill="white"/>
<path d="M190.194 116.662H185.322L185.979 111.412H190.851L190.194 116.662Z" fill="white"/>
<path d="M204.362 116.662H199.491L200.148 111.412H205.031L204.362 116.662Z" fill="white"/>
<path d="M211.535 116.662H206.663L207.32 111.412H212.192L211.535 116.662Z" fill="white"/>
<path d="M218.695 116.662H213.824L214.493 111.412H219.364L218.695 116.662Z" fill="white"/>
<path d="M225.867 116.662H220.996L221.665 111.412H226.536L225.867 116.662Z" fill="white"/>
<path d="M233.039 116.662H228.167L228.825 111.412H233.696L233.039 116.662Z" fill="white"/>
<path d="M196.227 124.353H191.344L192.013 119.104H196.885L196.227 124.353Z" fill="white"/>
<path d="M189.243 124.302H184.371L185.041 119.053H189.912L189.243 124.302Z" fill="white"/>
<path d="M203.388 124.353H198.516L199.185 119.104H204.057L203.388 124.353Z" fill="#A6BDFF"/>
<path d="M210.56 124.353H205.689L206.346 119.104H211.218L210.56 124.353Z" fill="white"/>
<path d="M217.733 124.353H212.861L213.518 119.104H218.39L217.733 124.353Z" fill="white"/>
<path d="M224.892 124.353H220.022L220.691 119.104H225.562L224.892 124.353Z" fill="white"/>
<path d="M232.065 124.353H227.193L227.851 119.104H232.734L232.065 124.353Z" fill="white"/>
<path d="M195.253 132.044H190.381L191.039 126.794H195.91L195.253 132.044Z" fill="white"/>
<path d="M188.187 132.044H183.315L183.972 126.794H188.844L188.187 132.044Z" fill="white"/>
<path d="M202.414 132.044H197.542L198.211 126.794H203.083L202.414 132.044Z" fill="white"/>
<path d="M209.586 132.044H204.714L205.383 126.794H210.255L209.586 132.044Z" fill="white"/>
<path d="M216.758 132.044H211.887L212.544 126.794H217.416L216.758 132.044Z" fill="white"/>
<path d="M194.29 139.609H189.419L190.088 134.359H194.959L194.29 139.609Z" fill="white"/>
<path d="M187.224 139.609H182.352L183.021 134.359H187.893L187.224 139.609Z" fill="white"/>
<path d="M201.463 139.609H196.591L197.248 134.359H202.12L201.463 139.609Z" fill="white"/>
<path d="M208.635 139.609H203.763L204.421 134.359H209.292L208.635 139.609Z" fill="white"/>
<path d="M215.796 139.609H210.924L211.593 134.359H216.465L215.796 139.609Z" fill="#FFC257"/>
<path d="M223.918 132.044H219.047L219.716 126.794H224.588L223.918 132.044Z" fill="white"/>
<path d="M231.09 132.044H226.219L226.889 126.794H231.759L231.09 132.044Z" fill="white"/>
<path d="M189.712 93.1707C189.666 93.5122 189.384 93.7779 189.067 93.7779C188.75 93.7779 188.539 93.4996 188.574 93.1707C188.62 92.8291 188.902 92.5635 189.219 92.5635C189.536 92.5635 189.747 92.8418 189.712 93.1707Z" fill="#A6BDFF"/>
<path d="M197.648 93.1707C197.6 93.5122 197.319 93.7779 197.002 93.7779C196.685 93.7779 196.473 93.4996 196.509 93.1707C196.556 92.8291 196.838 92.5635 197.155 92.5635C197.472 92.5635 197.695 92.8418 197.648 93.1707Z" fill="#A6BDFF"/>
<path d="M205.594 93.1707C205.548 93.5122 205.266 93.7779 204.949 93.7779C204.632 93.7779 204.421 93.4996 204.456 93.1707C204.503 92.8291 204.784 92.5635 205.101 92.5635C205.418 92.5635 205.642 92.8418 205.594 93.1707Z" fill="#A6BDFF"/>
<path d="M213.335 93.5833C213.582 93.3353 213.621 92.948 213.422 92.7183C213.222 92.4885 212.861 92.5033 212.614 92.7513C212.368 92.9993 212.33 93.3865 212.529 93.6163C212.728 93.8461 213.09 93.8313 213.335 93.5833Z" fill="#A6BDFF"/>
<path d="M221.477 93.1707C221.43 93.5122 221.148 93.7779 220.832 93.7779C220.515 93.7779 220.303 93.4996 220.339 93.1707C220.385 92.8291 220.667 92.5635 220.984 92.5635C221.3 92.5635 221.524 92.8418 221.477 93.1707Z" fill="#A6BDFF"/>
<path d="M229.424 93.1707C229.377 93.5122 229.095 93.7779 228.778 93.7779C228.461 93.7779 228.25 93.4996 228.285 93.1707C228.332 92.8291 228.614 92.5635 228.931 92.5635C229.248 92.5635 229.47 92.8418 229.424 93.1707Z" fill="#A6BDFF"/>
<path d="M237.371 93.1707C237.324 93.5122 237.042 93.7779 236.725 93.7779C236.408 93.7779 236.197 93.4996 236.232 93.1707C236.279 92.8291 236.561 92.5635 236.878 92.5635C237.195 92.5635 237.406 92.8418 237.371 93.1707Z" fill="#A6BDFF"/>
<path d="M222.087 98.5091H201.486C201.028 98.5091 200.606 98.3194 200.324 97.9652C200.03 97.611 199.913 97.1303 199.972 96.6243C200.101 95.6123 200.97 94.79 201.909 94.79H222.51C222.968 94.79 223.39 94.9798 223.672 95.334C223.966 95.6882 224.082 96.1689 224.024 96.6749C223.906 97.6869 223.038 98.5091 222.087 98.5091ZM201.909 95.1695C201.134 95.1695 200.418 95.8526 200.312 96.6875C200.266 97.0797 200.359 97.4592 200.583 97.7248C200.805 97.9905 201.122 98.1423 201.486 98.1423H222.087C222.862 98.1423 223.578 97.4592 223.684 96.6243C223.73 96.2321 223.637 95.8526 223.413 95.587C223.191 95.3213 222.874 95.1695 222.51 95.1695H201.909Z" fill="white"/>
<path d="M189.126 93.386C188.421 93.386 187.787 93.0697 187.294 92.4625C186.602 91.6023 186.308 90.2994 186.484 88.8952C186.789 86.4411 188.469 84.4551 190.205 84.4551C190.3 84.4551 190.381 84.5436 190.381 84.6448C190.381 84.746 190.3 84.8346 190.205 84.8346C188.633 84.8346 187.106 86.6815 186.825 88.9585C186.66 90.2488 186.93 91.4632 187.553 92.2348C187.976 92.7535 188.515 93.0318 189.126 93.0318C189.219 93.0318 189.302 93.1203 189.302 93.2215C189.302 93.3227 189.219 93.386 189.126 93.386Z" fill="#382A73"/>
<path d="M197.072 93.386C196.368 93.386 195.734 93.0697 195.241 92.4625C194.549 91.6023 194.255 90.2994 194.431 88.8952C194.737 86.4411 196.415 84.4551 198.153 84.4551C198.246 84.4551 198.329 84.5436 198.329 84.6448C198.329 84.746 198.246 84.8346 198.153 84.8346C196.579 84.8346 195.054 86.6815 194.772 88.9585C194.607 90.2488 194.878 91.4632 195.5 92.2348C195.922 92.7535 196.462 93.0318 197.072 93.0318C197.167 93.0318 197.248 93.1203 197.248 93.2215C197.248 93.3227 197.167 93.386 197.072 93.386Z" fill="#382A73"/>
<path d="M205.008 93.386C204.303 93.386 203.67 93.0697 203.177 92.4625C202.484 91.6023 202.191 90.2994 202.367 88.8952C202.672 86.4411 204.351 84.4551 206.087 84.4551C206.182 84.4551 206.263 84.5436 206.263 84.6448C206.263 84.746 206.182 84.8346 206.087 84.8346C204.515 84.8346 202.988 86.6815 202.707 88.9585C202.543 90.2488 202.812 91.4632 203.435 92.2348C203.858 92.7535 204.397 93.0318 205.008 93.0318C205.101 93.0318 205.184 93.1203 205.184 93.2215C205.184 93.3227 205.101 93.386 205.008 93.386Z" fill="#382A73"/>
<path d="M212.954 93.386C212.25 93.386 211.616 93.0697 211.123 92.4625C210.431 91.6023 210.137 90.2994 210.313 88.8952C210.619 86.4411 212.297 84.4551 214.035 84.4551C214.129 84.4551 214.211 84.5436 214.211 84.6448C214.211 84.746 214.129 84.8346 214.035 84.8346C212.461 84.8346 210.936 86.6815 210.654 88.9585C210.489 90.2488 210.76 91.4632 211.382 92.2348C211.804 92.7535 212.345 93.0318 212.954 93.0318C213.049 93.0318 213.131 93.1203 213.131 93.2215C213.131 93.3227 213.049 93.386 212.954 93.386Z" fill="#382A73"/>
<path d="M220.902 93.386C220.198 93.386 219.564 93.0697 219.071 92.4625C218.378 91.6023 218.085 90.2994 218.261 88.8952C218.566 86.4411 220.244 84.4551 221.982 84.4551C222.075 84.4551 222.158 84.5436 222.158 84.6448C222.158 84.746 222.075 84.8346 221.982 84.8346C220.409 84.8346 218.883 86.6815 218.601 88.9585C218.437 90.2488 218.707 91.4632 219.328 92.2348C219.751 92.7535 220.291 93.0318 220.902 93.0318C220.996 93.0318 221.078 93.1203 221.078 93.2215C221.078 93.3227 220.996 93.386 220.902 93.386Z" fill="#382A73"/>
<path d="M228.837 93.386C228.132 93.386 227.498 93.0697 227.005 92.4625C226.313 91.6023 226.019 90.2994 226.195 88.8952C226.501 86.4411 228.18 84.4551 229.917 84.4551C230.011 84.4551 230.093 84.5436 230.093 84.6448C230.093 84.746 230.011 84.8346 229.917 84.8346C228.344 84.8346 226.818 86.6815 226.537 88.9585C226.372 90.2488 226.642 91.4632 227.264 92.2348C227.687 92.7535 228.227 93.0318 228.837 93.0318C228.931 93.0318 229.013 93.1203 229.013 93.2215C229.013 93.3227 228.942 93.386 228.837 93.386Z" fill="#382A73"/>
<path d="M236.784 93.386C236.08 93.386 235.446 93.0697 234.953 92.4625C234.26 91.6023 233.967 90.2994 234.143 88.8952C234.448 86.4411 236.126 84.4551 237.864 84.4551C237.957 84.4551 238.04 84.5436 238.04 84.6448C238.04 84.746 237.957 84.8346 237.864 84.8346C236.291 84.8346 234.765 86.6815 234.483 88.9585C234.319 90.2488 234.589 91.4632 235.211 92.2348C235.633 92.7535 236.174 93.0318 236.784 93.0318C236.878 93.0318 236.96 93.1203 236.96 93.2215C236.96 93.3227 236.878 93.386 236.784 93.386Z" fill="#382A73"/>
<path d="M280.369 155.637H279.418V212.372H280.369V155.637Z" fill="#7C6ED8"/>
<path d="M281.32 155.637H280.369V212.372H281.32V155.637Z" fill="#7D6FD9"/>
<path d="M282.258 155.637H281.308V212.372H282.258V155.637Z" fill="#7D70D9"/>
<path d="M283.209 155.637H282.259V212.372H283.209V155.637Z" fill="#7E71DA"/>
<path d="M284.149 155.637H283.198V212.372H284.149V155.637Z" fill="#7E72DA"/>
<path d="M285.1 155.637H284.149V212.372H285.1V155.637Z" fill="#7F73DB"/>
<path d="M286.039 155.637H285.088V212.372H286.039V155.637Z" fill="#7F74DB"/>
<path d="M286.989 155.637H286.039V212.372H286.989V155.637Z" fill="#8075DC"/>
<path d="M287.928 155.637H286.978V212.372H287.928V155.637Z" fill="#8076DC"/>
<path d="M288.879 155.637H287.928V212.372H288.879V155.637Z" fill="#8177DD"/>
<path d="M289.819 155.637H288.868V212.372H289.819V155.637Z" fill="#8178DD"/>
<path d="M290.77 155.637H289.819V212.372H290.77V155.637Z" fill="#8279DE"/>
<path d="M291.708 155.637H290.758V212.372H291.708V155.637Z" fill="#827ADE"/>
<path d="M292.659 155.637H291.708V212.372H292.659V155.637Z" fill="#837BDF"/>
<path d="M293.598 155.637H292.647V212.372H293.598V155.637Z" fill="#847CDF"/>
<path d="M294.549 155.637H293.598V212.372H294.549V155.637Z" fill="#847DE0"/>
<path d="M295.488 155.637H294.538V212.372H295.488V155.637Z" fill="#857EE0"/>
<path d="M296.439 155.637H295.489V212.372H296.439V155.637Z" fill="#857FE1"/>
<path d="M297.378 155.637H296.427V212.372H297.378V155.637Z" fill="#8680E1"/>
<path d="M298.329 155.637H297.378V212.372H298.329V155.637Z" fill="#8681E2"/>
<path d="M299.268 155.637H298.317V212.372H299.268V155.637Z" fill="#8782E2"/>
<path d="M300.218 155.637H299.268V212.372H300.218V155.637Z" fill="#8783E3"/>
<path d="M301.158 155.637H300.207V212.372H301.158V155.637Z" fill="#8884E3"/>
<path d="M302.109 155.637H301.158V212.372H302.109V155.637Z" fill="#8885E4"/>
<path d="M303.048 155.637H302.097V212.372H303.048V155.637Z" fill="#8986E4"/>
<path d="M303.999 155.637H303.048V212.372H303.999V155.637Z" fill="#8987E5"/>
<path d="M304.937 155.637H303.987V212.372H304.937V155.637Z" fill="#8A88E5"/>
<path d="M305.888 155.637H304.937V212.372H305.888V155.637Z" fill="#8B89E6"/>
<path d="M306.828 155.637H305.877V212.372H306.828V155.637Z" fill="#8B8AE6"/>
<path d="M307.779 155.637H306.828V212.372H307.779V155.637Z" fill="#8C8BE7"/>
<path d="M308.717 155.637H307.767V212.372H308.717V155.637Z" fill="#8C8CE7"/>
<path d="M309.668 155.637H308.718V212.372H309.668V155.637Z" fill="#8D8DE8"/>
<path d="M310.607 155.637H309.656V212.372H310.607V155.637Z" fill="#8D8EE8"/>
<path d="M311.558 155.637H310.607V212.372H311.558V155.637Z" fill="#8E8FE9"/>
<path d="M312.497 155.637H311.547V212.372H312.497V155.637Z" fill="#8E90E9"/>
<path d="M313.448 155.637H312.498V212.372H313.448V155.637Z" fill="#8F91EA"/>
<path d="M314.387 155.637H313.436V212.372H314.387V155.637Z" fill="#8F92EA"/>
<path d="M315.338 155.637H314.387V212.372H315.338V155.637Z" fill="#9093EB"/>
<path d="M316.277 155.637H315.326V212.372H316.277V155.637Z" fill="#9094EB"/>
<path d="M317.228 155.637H316.277V212.372H317.228V155.637Z" fill="#9196EC"/>
<path d="M318.167 155.637H317.216V212.372H318.167V155.637Z" fill="#9297EC"/>
<path d="M319.118 155.637H318.167V212.372H319.118V155.637Z" fill="#9298ED"/>
<path d="M320.057 155.637H319.106V212.372H320.057V155.637Z" fill="#9399ED"/>
<path d="M321.008 155.637H320.057V212.372H321.008V155.637Z" fill="#939AEE"/>
<path d="M321.946 155.637H320.996V212.372H321.946V155.637Z" fill="#949BEE"/>
<path d="M322.897 155.637H321.946V212.372H322.897V155.637Z" fill="#949CEF"/>
<path d="M323.837 155.637H322.886V212.372H323.837V155.637Z" fill="#959DEF"/>
<path d="M324.788 155.637H323.837V212.372H324.788V155.637Z" fill="#959EF0"/>
<path d="M325.726 155.637H324.776V212.372H325.726V155.637Z" fill="#969FF0"/>
<path d="M326.677 155.637H325.727V212.372H326.677V155.637Z" fill="#96A0F1"/>
<path d="M327.616 155.637H326.665V212.372H327.616V155.637Z" fill="#97A1F1"/>
<path d="M328.567 155.637H327.616V212.372H328.567V155.637Z" fill="#97A2F2"/>
<path d="M329.507 155.637H328.556V212.372H329.507V155.637Z" fill="#98A3F2"/>
<path d="M330.457 155.637H329.507V212.372H330.457V155.637Z" fill="#99A4F3"/>
<path d="M331.396 155.637H330.445V212.372H331.396V155.637Z" fill="#99A5F3"/>
<path d="M332.347 155.637H331.396V212.372H332.347V155.637Z" fill="#9AA6F4"/>
<path d="M333.286 155.637H332.335V212.372H333.286V155.637Z" fill="#9AA7F4"/>
<path d="M334.237 155.637H333.286V212.372H334.237V155.637Z" fill="#9BA8F5"/>
<path d="M335.176 155.637H334.226V212.372H335.176V155.637Z" fill="#9BA9F5"/>
<path d="M336.127 155.637H335.176V212.372H336.127V155.637Z" fill="#9CAAF6"/>
<path d="M337.066 155.637H336.115V212.372H337.066V155.637Z" fill="#9CABF6"/>
<path d="M338.017 155.637H337.066V212.372H338.017V155.637Z" fill="#9DACF7"/>
<path d="M338.955 155.637H338.005V212.372H338.955V155.637Z" fill="#9DADF7"/>
<path d="M339.906 155.637H338.956V212.372H339.906V155.637Z" fill="#9EAEF8"/>
<path d="M340.846 155.637H339.895V212.372H340.846V155.637Z" fill="#9EAFF8"/>
<path d="M341.797 155.637H340.846V212.372H341.797V155.637Z" fill="#9FB0F9"/>
<path d="M342.735 155.637H341.785V212.372H342.735V155.637Z" fill="#A0B1F9"/>
<path d="M343.686 155.637H342.736V212.372H343.686V155.637Z" fill="#A0B2FA"/>
<path d="M344.625 155.637H343.674V212.372H344.625V155.637Z" fill="#A1B3FA"/>
<path d="M345.576 155.637H344.625V212.372H345.576V155.637Z" fill="#A1B4FB"/>
<path d="M346.516 155.637H345.565V212.372H346.516V155.637Z" fill="#A2B5FB"/>
<path d="M347.466 155.637H346.516V212.372H347.466V155.637Z" fill="#A2B6FC"/>
<path d="M348.405 155.637H347.455V212.372H348.405V155.637Z" fill="#A3B7FC"/>
<path d="M349.356 155.637H348.405V212.372H349.356V155.637Z" fill="#A3B8FD"/>
<path d="M350.295 155.637H349.344V212.372H350.295V155.637Z" fill="#A4B9FD"/>
<path d="M351.246 155.637H350.295V212.372H351.246V155.637Z" fill="#A4BAFE"/>
<path d="M352.185 155.637H351.235V212.372H352.185V155.637Z" fill="#A5BBFE"/>
<path d="M353.136 155.637H352.186V212.372H353.136V155.637Z" fill="#A5BCFF"/>
<path d="M354.075 155.637H353.124V212.372H354.075V155.637Z" fill="#A6BDFF"/>
<path d="M306.996 182.501C308.704 181.745 309.522 179.639 308.821 177.797C308.12 175.955 306.166 175.074 304.456 175.829C302.747 176.585 301.93 178.691 302.631 180.533C303.331 182.375 305.286 183.256 306.996 182.501Z" fill="white"/>
<path d="M319.213 179.901C319.58 177.949 318.409 176.047 316.598 175.652C314.788 175.257 313.022 176.519 312.655 178.47C312.289 180.422 313.46 182.324 315.27 182.719C317.081 183.114 318.847 181.852 319.213 179.901Z" fill="white"/>
<path d="M328.519 181.729C329.825 180.321 329.825 178.038 328.519 176.63C327.212 175.222 325.094 175.222 323.787 176.63C322.481 178.038 322.481 180.321 323.787 181.729C325.094 183.137 327.212 183.137 328.519 181.729Z" fill="white"/>
</g>
</g>
<defs>
<filter id="filter0_f_40_67" x="0.114853" y="0.597397" width="746.816" height="582.564" filterUnits="userSpaceOnUse" color-interpolation-filters="sRGB">
<feFlood flood-opacity="0" result="BackgroundImageFix"/>
<feBlend mode="normal" in="SourceGraphic" in2="BackgroundImageFix" result="shape"/>
<feGaussianBlur stdDeviation="60.323" result="effect1_foregroundBlur_40_67"/>
</filter>
<radialGradient id="paint0_radial_40_67" cx="0" cy="0" r="1" gradientUnits="userSpaceOnUse" gradientTransform="translate(392.479 331.966) rotate(-157.775) scale(379.836 326.684)">
<stop stop-color="#3CC1F9" stop-opacity="0.47"/>
<stop offset="1" stop-color="#1580F5" stop-opacity="0"/>
</radialGradient>
<clipPath id="clip0_40_67">
<rect width="645" height="479" fill="white" transform="translate(52 5)"/>
</clipPath>
</defs>
</svg>
