<svg width="72" height="72" viewBox="0 0 72 72" fill="none" xmlns="http://www.w3.org/2000/svg">
<g clip-path="url(#clip0_24_39)">
<path d="M46.4299 70.4182V71.4998H26.0566V70.4182C26.0566 69.8219 26.5593 69.3338 27.1833 69.3338H45.3031C45.9271 69.3338 46.4299 69.8219 46.4299 70.4182ZM30.4453 61.9564V67.2814H42.042V61.9564H30.4453ZM0.821289 53.7858H71.6652V57.982C71.6624 59.0414 70.7668 59.9012 69.6632 59.9012H2.82334C1.71973 59.9012 0.824173 59.0414 0.821289 57.982V53.7858ZM33.6691 56.8448C33.6691 57.1166 33.7818 57.3801 33.9812 57.5715C34.1834 57.7656 34.455 57.871 34.7381 57.871H37.7484C38.3377 57.871 38.8173 57.4134 38.8173 56.8448C38.8173 56.279 38.3377 55.8187 37.7484 55.8187H34.7381C34.4549 55.8187 34.1834 55.9268 33.9812 56.1182C33.7818 56.3123 33.6691 56.5731 33.6691 56.8448ZM50.1685 37.7914L45.9246 36.6958L46.9097 41.3247L50.1685 37.7914ZM51.3617 35.972L60.2973 3.97524C60.7047 2.5081 59.7975 1.00213 58.2721 0.611062C56.7467 0.219996 55.178 1.0881 54.7706 2.55525L51.5465 14.0984C51.5407 14.1178 51.5349 14.14 51.5292 14.1622L45.8379 34.5469L51.3617 35.972ZM71.6625 16.7964V51.7275H0.821511V16.7964C0.8244 15.7369 1.71996 14.88 2.82356 14.88H49.1111L43.492 35.007C43.4487 35.1595 43.4429 35.3204 43.4776 35.4784L45.2427 43.7464C45.3236 44.1263 45.6212 44.4314 46.0141 44.5313C46.1037 44.5534 46.1961 44.5673 46.2914 44.5673C46.5948 44.5673 46.8866 44.4397 47.0917 44.2206L52.9217 37.9083C53.0314 37.7891 53.1094 37.6476 53.1528 37.4923L59.4653 14.8775H69.6634C70.767 14.8775 71.6626 15.7372 71.6654 16.7967L71.6625 16.7964ZM34.5362 30.8884C34.5362 30.6166 34.4235 30.3531 34.2213 30.1618C34.0219 29.9704 33.7504 29.8623 33.4644 29.8623H27.9464C27.9464 29.7596 27.9551 29.6598 27.9551 29.5572C27.958 25.8713 25.693 22.5321 22.18 21.0429C18.6698 19.5508 14.5734 20.1887 11.7334 22.6709C8.8935 25.1504 7.84477 29.0054 9.06102 32.503C10.2773 35.9975 13.5246 38.4769 17.3466 38.8236V45.3328C17.3466 45.6046 17.4592 45.8653 17.6615 46.0594C17.8637 46.2508 18.1353 46.359 18.4184 46.359H33.4644C34.0567 46.359 34.5362 45.8986 34.5362 45.3328L34.5362 30.8884ZM25.4038 31.9173H19.4871V36.7154V36.7126C22.2259 36.2772 24.4966 34.4356 25.4038 31.9173ZM19.4871 38.7899V44.3062H32.398V31.9175H27.6427C26.6316 35.5867 23.4074 38.3019 19.4873 38.7873L19.4871 38.7899ZM25.814 29.5599V29.5572C25.8169 26.7033 24.0719 24.1129 21.3621 22.9398C18.6493 21.7694 15.4744 22.2325 13.2496 24.124C11.0222 26.0155 10.1584 28.9859 11.0424 31.7125C11.9293 34.4387 14.3966 36.4135 17.3462 36.7574V30.8888C17.3491 30.617 17.4617 30.3536 17.6611 30.1622C17.8633 29.9708 18.1349 29.8627 18.418 29.8627H25.808C25.8138 29.7628 25.814 29.6598 25.814 29.5599Z" fill="white"/>
</g>
<defs>
<clipPath id="clip0_24_39">
<rect width="71" height="71" fill="white" transform="translate(0.743652 0.5)"/>
</clipPath>
</defs>
</svg>
