<svg width="84" height="71" viewBox="0 0 84 71" fill="none" xmlns="http://www.w3.org/2000/svg">
<path fill-rule="evenodd" clip-rule="evenodd" d="M51.6492 39.5357C51.2041 42.1594 50.9631 45.0184 50.9631 48.009C50.9631 51.0833 51.2204 54.0101 51.686 56.6936C54.4387 57.1123 57.4447 57.3196 60.5895 57.2758C63.6526 57.2319 66.5729 56.9528 69.2521 56.4823C69.6973 53.8586 69.9382 50.9996 69.9382 48.009C69.9382 44.9347 69.6809 42.0079 69.2153 39.3243C66.4626 38.9057 63.4566 38.6983 60.3118 38.7422C57.2487 38.786 54.3285 39.0652 51.6492 39.5357ZM52.0699 37.3864C54.647 36.9757 57.412 36.7325 60.2873 36.6926C63.2647 36.6527 66.1277 36.8282 68.7906 37.191C68.3046 35.0537 67.6797 33.1119 66.9405 31.4292C65.2046 27.4697 62.9012 25.0215 60.4548 25.0215C58.0042 25.0215 55.7049 27.4697 53.9691 31.4292C53.2095 33.1637 52.5683 35.1695 52.0741 37.3864L52.0699 37.3864ZM68.8353 58.635C66.2582 59.0457 63.4932 59.289 60.6179 59.3289C57.6405 59.3687 54.7776 59.1933 52.1146 58.8304C52.6007 60.9677 53.2255 62.9096 53.9648 64.5922C55.7006 68.5518 58.004 71 60.4504 71C62.901 71 65.2003 68.5518 66.9361 64.5922C67.6957 62.8577 68.3369 60.852 68.8311 58.6351L68.8353 58.635ZM84 47.8607C84 47.7411 83.9959 47.6214 83.9959 47.5018C83.8407 45.1812 81.3248 43.0399 77.3428 41.4369C75.6111 40.7391 73.6139 40.157 71.4166 39.7104C71.8291 42.3062 72.0496 45.0974 72.0496 48.0082C72.0496 50.8194 71.8413 53.5188 71.4574 56.0389C73.716 55.5245 75.7622 54.8706 77.5265 54.105C81.4596 52.3944 83.9101 50.1814 83.9999 47.8567L84 47.8607ZM36.9094 48.1597C36.9094 48.2794 36.9135 48.399 36.9135 48.5186C37.0687 50.8392 39.5846 52.9805 43.5666 54.5835C45.2983 55.2813 47.2955 55.8634 49.4928 56.31C49.0803 53.7142 48.8598 50.9231 48.8598 48.0122C48.8598 45.2011 49.0681 42.5016 49.452 39.9815C47.1934 40.4959 45.1472 41.1498 43.3829 41.9154C39.4498 43.626 36.9993 45.839 36.9094 48.1637L36.9094 48.1597ZM65.7311 25.6025C70.1134 26.5834 74.0301 28.7565 77.1014 31.755C80.0993 34.6818 82.2883 38.3901 83.3257 42.5406C81.9984 41.4002 80.2381 40.3874 78.1348 39.5421C76.0722 38.7127 73.6667 38.0348 71.016 37.5484C70.481 34.9686 69.75 32.6279 68.8718 30.6263C67.9774 28.5887 66.9155 26.882 65.727 25.6021L65.7311 25.6025ZM37.428 43.1793C38.3959 38.7692 40.6545 34.8296 43.8035 31.7558C46.8748 28.7572 50.7915 26.5841 55.1738 25.6032C53.9853 26.8831 52.9235 28.5858 52.029 30.6274C51.1223 32.6928 50.375 35.1172 49.8358 37.7967C47.0993 38.363 44.6243 39.1246 42.5251 40.0417C40.4503 40.9428 38.7186 42.0035 37.428 43.1837V43.1793ZM55.1741 70.4179C50.7918 69.437 46.8751 67.2639 43.8038 64.2653C40.806 61.3386 38.6169 57.6303 37.5795 53.4797C38.9068 54.6202 40.6671 55.633 42.7705 56.4783C44.833 57.3077 47.2385 57.9856 49.8892 58.472C50.4242 61.0518 51.1552 63.3925 52.0334 65.3941C52.9278 67.4317 53.9897 69.1384 55.1782 70.4183L55.1741 70.4179ZM83.4772 52.841C82.5093 57.2511 80.2508 61.1907 77.1018 64.2646C74.0304 67.2632 70.1137 69.4363 65.7314 70.4172C66.9199 69.1372 67.9817 67.4346 68.8762 65.393C69.7829 63.3275 70.5303 60.9032 71.0695 58.2236C73.8059 57.6574 76.2809 56.8958 78.3802 55.9787C80.4549 55.0776 82.1866 54.0169 83.4772 52.8367V52.841ZM6.26951 42.1749C5.68548 42.1749 5.21581 41.7163 5.21581 41.1461C5.21581 40.576 5.68549 40.1174 6.26951 40.1174H27.9407C28.5247 40.1174 28.9944 40.576 28.9944 41.1461C28.9944 41.7163 28.5247 42.1749 27.9407 42.1749H6.26951ZM6.26951 36.744C5.68548 36.744 5.21581 36.2855 5.21581 35.7153C5.21581 35.1451 5.68549 34.6865 6.26951 34.6865H27.9407C28.5247 34.6865 28.9944 35.1451 28.9944 35.7153C28.9944 36.2855 28.5247 36.744 27.9407 36.744H6.26951ZM27.1805 20.1604H7.02963V24.104H27.1805V20.1604ZM5.97571 18.1029H28.2345C28.8185 18.1029 29.2882 18.5614 29.2882 19.1316V25.1367C29.2882 25.7069 28.8185 26.1654 28.2345 26.1654H5.97571C5.39168 26.1654 4.92201 25.7069 4.92201 25.1367V19.1316C4.92201 18.5614 5.39169 18.1029 5.97571 18.1029ZM76.6728 11.5276V0.00398646L0.000386881 0V11.5236H76.6728V11.5276ZM69.893 4.3662C70.2851 4.3662 70.6445 4.5257 70.9059 4.7769C71.1673 5.0321 71.3265 5.38299 71.3265 5.76579C71.3265 6.15257 71.1632 6.49948 70.9059 6.75467C70.6445 7.00987 70.2851 7.16537 69.893 7.16537H43.5336C43.1415 7.16537 42.7821 7.00588 42.5207 6.75467C42.2593 6.49948 42.1001 6.14858 42.1001 5.76579C42.1001 5.379 42.2634 5.0321 42.5207 4.7769C42.7821 4.52171 43.1415 4.3662 43.5336 4.3662H69.893ZM43.5336 2.30871H69.893C70.8691 2.30871 71.7553 2.69948 72.3966 3.3255C73.0378 3.95153 73.438 4.81676 73.438 5.76977C73.438 6.72277 73.0378 7.58799 72.3966 8.21403C71.7554 8.84008 70.8691 9.23082 69.893 9.23082H43.5336C42.5575 9.23082 41.6713 8.84006 41.03 8.21403C40.3888 7.58801 39.9886 6.72277 39.9886 5.76977C39.9886 4.81676 40.3888 3.95155 41.03 3.3255C41.6712 2.69946 42.5575 2.30871 43.5336 2.30871ZM23.5458 31.3173C22.9618 31.3173 22.4921 30.8588 22.4921 30.2886C22.4921 29.7184 22.9618 29.2598 23.5458 29.2598H27.9403C28.5244 29.2598 28.9941 29.7184 28.9941 30.2886C28.9941 30.8588 28.5244 31.3173 27.9403 31.3173H23.5458ZM14.9078 31.3173C14.3237 31.3173 13.854 30.8588 13.854 30.2886C13.854 29.7184 14.3237 29.2598 14.9078 29.2598H19.3023C19.8863 29.2598 20.356 29.7184 20.356 30.2886C20.356 30.8588 19.8863 31.3173 19.3023 31.3173H14.9078ZM6.26972 31.3173C5.68569 31.3173 5.21602 30.8588 5.21602 30.2886C5.21602 29.7184 5.6857 29.2598 6.26972 29.2598H10.6643C11.2483 29.2598 11.718 29.7184 11.718 30.2886C11.718 30.8588 11.2483 31.3173 10.6643 31.3173H6.26972ZM26.2899 4.88108C26.5227 5.10837 26.6657 5.42337 26.6657 5.77028C26.6657 6.11718 26.5227 6.43219 26.2899 6.65947C26.0571 6.88676 25.7345 7.02632 25.3792 7.02632C25.0239 7.02632 24.7012 6.88676 24.4684 6.65947C24.2356 6.43218 24.0927 6.11718 24.0927 5.77028C24.0927 5.42337 24.2356 5.10836 24.4684 4.88108C24.7012 4.65381 25.0239 4.51424 25.3792 4.51424C25.7345 4.51424 26.0572 4.6538 26.2899 4.88108ZM25.3792 2.45274C26.3185 2.45274 27.168 2.82357 27.7807 3.42567C28.3974 4.02777 28.7772 4.85313 28.7772 5.77031C28.7772 6.68748 28.3974 7.51677 27.7807 8.11494C27.164 8.71704 26.3186 9.08787 25.3792 9.08787C24.4398 9.08787 23.5903 8.71704 22.9776 8.11494C22.3609 7.51285 21.9811 6.68748 21.9811 5.77031C21.9811 4.85313 22.3609 4.02385 22.9776 3.42567C23.5944 2.82357 24.4397 2.45274 25.3792 2.45274ZM16.9167 4.88108C17.1495 5.10837 17.2924 5.42337 17.2924 5.77028C17.2924 6.11718 17.1495 6.43219 16.9167 6.65947C16.6839 6.88676 16.3612 7.02632 16.0059 7.02632C15.6506 7.02632 15.3279 6.88676 15.0952 6.65947C14.8623 6.43218 14.7194 6.11718 14.7194 5.77028C14.7194 5.42337 14.8623 5.10836 15.0952 4.88108C15.328 4.6538 15.6506 4.51424 16.0059 4.51424C16.3612 4.51424 16.6839 4.6538 16.9167 4.88108ZM16.0059 2.45274C16.9453 2.45274 17.7948 2.82357 18.4074 3.42567C19.0242 4.02777 19.404 4.85313 19.404 5.77031C19.404 6.68748 19.0242 7.51677 18.4074 8.11494C17.7907 8.71704 16.9453 9.08787 16.0059 9.08787C15.0665 9.08787 14.2171 8.71704 13.6044 8.11494C12.9877 7.51285 12.6079 6.68748 12.6079 5.77031C12.6079 4.85313 12.9877 4.02385 13.6044 3.42567C14.2211 2.82357 15.0665 2.45274 16.0059 2.45274ZM7.54343 4.88108C7.77624 5.10837 7.91919 5.42337 7.91919 5.77028C7.91919 6.11718 7.77624 6.43219 7.54343 6.65947C7.31063 6.88675 6.98799 7.02632 6.63266 7.02632C6.27734 7.02632 5.95469 6.88676 5.7219 6.65947C5.48909 6.43218 5.34615 6.11718 5.34615 5.77028C5.34615 5.42337 5.48909 5.10836 5.7219 4.88108C5.9547 4.6538 6.27734 4.51424 6.63266 4.51424C6.98799 4.51424 7.31064 4.6538 7.54343 4.88108ZM6.63266 2.45274C7.57203 2.45274 8.4215 2.82357 9.03419 3.42567C9.6509 4.02777 10.0307 4.85313 10.0307 5.77031C10.0307 6.68748 9.6509 7.51677 9.03419 8.11494C8.41748 8.71704 7.57209 9.08787 6.63266 9.08787C5.6933 9.08787 4.84383 8.71704 4.23114 8.11494C3.61443 7.51285 3.2346 6.68748 3.2346 5.77031C3.2346 4.85313 3.61443 4.02385 4.23114 3.42567C4.84785 2.82357 5.69324 2.45274 6.63266 2.45274ZM60.4503 22.9684C53.3643 22.9684 46.9523 25.7716 42.3079 30.3053C37.6636 34.839 34.793 41.0991 34.793 48.0179C34.793 51.511 35.5241 54.8365 36.8473 57.8549L0 57.847V13.5868H76.6724V28.6117C72.2533 25.0829 66.6008 22.9656 60.4454 22.9656L60.4503 22.9684Z" fill="white"/>
</svg>
