<svg width="31" height="30" viewBox="0 0 31 30" fill="none" xmlns="http://www.w3.org/2000/svg">
<path d="M26.3504 11.9346C26.3504 6.145 21.4834 1.43457 15.5004 1.43457C9.51739 1.43457 4.65039 6.145 4.65039 11.9346C4.65039 15.9597 7.00373 19.4611 10.4478 21.2226C10.4505 21.2449 10.4496 21.2667 10.4545 21.289L11.7388 27.52C11.8207 27.922 12.1847 28.1067 12.6076 28.1067H14.1058C14.2595 28.5353 14.5416 28.5353 14.8689 28.5353H15.7546C16.0814 28.5353 16.364 28.5353 16.5176 28.1067H18.0105C18.4348 28.1067 18.7997 27.9083 18.8803 27.505L20.1079 21.4304C23.7929 19.7504 26.3504 16.1307 26.3504 11.9346ZM17.2793 26.3924H13.3357L12.4199 21.9863C13.3973 22.2666 14.4304 22.4269 15.5008 22.4269C16.4149 22.4269 17.3028 22.3047 18.1518 22.0977L17.2793 26.3924ZM14.2236 20.5849L12.9951 14.8596C13.0151 14.8609 13.0346 14.8647 13.0549 14.8647C13.4398 14.8647 13.7728 14.6037 13.9836 14.1434C13.996 14.1293 14.0075 14.1147 14.0177 14.0989C14.0381 14.0684 14.0562 14.0461 14.0708 14.0311C14.085 14.0466 14.1032 14.068 14.1231 14.0984C14.1359 14.1177 14.151 14.1361 14.1678 14.1529C14.3795 14.6046 14.7099 14.86 15.0903 14.86C15.3024 14.86 15.6988 14.7751 15.9853 14.2094C15.9884 14.2043 15.9915 14.1987 15.9942 14.1931C16.0039 14.173 16.0137 14.152 16.023 14.131C16.0318 14.1207 16.0393 14.1096 16.0473 14.0984C16.0677 14.068 16.0858 14.0457 16.1005 14.0307C16.1151 14.0457 16.1332 14.068 16.1536 14.0984C16.1629 14.113 16.174 14.1263 16.1855 14.1396C16.3958 14.6024 16.7298 14.8643 17.1164 14.8643C17.5017 14.8643 17.8351 14.6033 18.0455 14.1426C18.0574 14.1284 18.0694 14.1139 18.0796 14.098C18.0995 14.068 18.1177 14.0457 18.1318 14.0307C18.1434 14.0423 18.1584 14.0624 18.173 14.083L16.778 20.5844C16.7754 20.5973 16.7794 20.6101 16.778 20.623C16.36 20.68 15.9357 20.7199 15.5013 20.7199C15.0668 20.7199 14.643 20.68 14.225 20.623C14.2223 20.6106 14.2267 20.5981 14.2236 20.5849ZM17.7116 20.4469L19.0951 13.9999C19.1376 13.8036 19.0286 13.6171 18.8493 13.534C18.4525 13.0489 17.8059 13.0407 17.4118 13.5284C17.3471 13.5769 17.2957 13.6429 17.2665 13.7204C17.2111 13.8657 17.1527 13.9476 17.1155 13.987C17.0778 13.948 17.0194 13.8661 16.964 13.7204C16.9383 13.6523 16.8923 13.5936 16.8343 13.5473C16.5686 13.2066 16.2648 13.1526 16.0996 13.1526C15.9362 13.1526 15.6355 13.2057 15.3711 13.5391C15.3135 13.5854 15.2683 13.6463 15.2404 13.7174C15.2263 13.7543 15.2108 13.7899 15.1979 13.8156C15.1961 13.819 15.1939 13.8229 15.1922 13.8263C15.1527 13.9056 15.1155 13.9544 15.0899 13.9814C15.0527 13.9424 14.9946 13.8614 14.9397 13.7183C14.9123 13.6471 14.8618 13.5859 14.7989 13.5396C14.6005 13.2889 14.345 13.1521 14.07 13.1521C13.9083 13.1521 13.6125 13.204 13.3508 13.528C13.2861 13.5764 13.2347 13.642 13.2055 13.7196C13.1501 13.8653 13.0912 13.9471 13.054 13.9866C13.0168 13.9476 12.9579 13.8657 12.9026 13.7196C12.8384 13.5511 12.6502 13.4389 12.4646 13.4389C12.3898 13.4389 12.3238 13.4611 12.2635 13.4929C12.2587 13.4937 12.2542 13.492 12.2494 13.4929C12.0098 13.5409 11.8557 13.768 11.9057 13.9994L13.2892 20.4464C9.346 19.4903 6.42182 16.0476 6.42182 11.9346C6.42182 7.08186 10.4864 3.14886 15.5004 3.14886C20.5144 3.14886 24.579 7.08186 24.579 11.9346C24.579 16.0476 21.6548 19.4903 17.7116 20.4469Z" fill="#FD6931"/>
<path d="M14.5445 5.03223C14.3717 5.03223 14.2004 5.03908 14.0307 5.05237C13.7867 5.07166 13.6056 5.27866 13.6255 5.5148C13.645 5.73851 13.8381 5.90823 14.0666 5.90823C14.0786 5.90823 14.0914 5.9078 14.1034 5.90694C14.2486 5.89537 14.3961 5.88937 14.5445 5.88937C14.7894 5.88937 14.9873 5.69737 14.9873 5.4608C14.9873 5.22423 14.7894 5.03223 14.5445 5.03223Z" fill="#FD6931"/>
<path d="M11.9713 5.57425C9.78265 6.54668 8.36816 8.6801 8.36816 11.0098C8.36816 11.2464 8.56612 11.4384 8.81102 11.4384C9.05592 11.4384 9.25388 11.2464 9.25388 11.0098C9.25388 9.01396 10.4655 7.1861 12.3406 6.35296C12.5629 6.25439 12.6608 5.99982 12.5585 5.78468C12.4562 5.56996 12.1927 5.47568 11.9713 5.57425Z" fill="#FD6931"/>
<path d="M13.0982 23.5029C13.068 23.7378 13.2399 23.9521 13.4826 23.9812L16.7119 24.3721C16.7305 24.3742 16.7491 24.3755 16.7672 24.3755C16.9873 24.3755 17.1782 24.2169 17.2061 24.0001C17.2362 23.7652 17.0644 23.5509 16.8217 23.5218L13.5924 23.1309C13.3497 23.1035 13.1292 23.2685 13.0982 23.5029Z" fill="#FD6931"/>
<path d="M16.5908 25.2065L13.8951 24.8808C13.6524 24.8538 13.4314 25.018 13.4009 25.2528C13.3708 25.4877 13.5426 25.702 13.7853 25.7311L16.481 26.0568C16.4996 26.059 16.5182 26.0603 16.5363 26.0603C16.7564 26.0603 16.9473 25.9017 16.9752 25.6848C17.0053 25.4504 16.8335 25.2361 16.5908 25.2065Z" fill="#FD6931"/>
</svg>
