<svg width="71" height="61" viewBox="0 0 71 61" fill="none" xmlns="http://www.w3.org/2000/svg">
<path d="M65.8736 0.865484C65.8736 0.663836 65.7114 0.5 65.5118 0.5L5.28853 0.5C5.08893 0.5 4.92676 0.663836 4.92676 0.865484V35.0925H65.8766L65.8736 0.865484ZM7.34131 5.62625L10.5598 2.37148C11.3021 1.62789 12.4248 2.76532 11.6888 3.51208L8.47033 6.76685C7.72806 7.51044 6.60535 6.37301 7.34131 5.62625ZM16.554 4.3628L9.01915 12.0066C8.27688 12.7533 7.15417 11.6159 7.88702 10.8691L15.4219 3.22534C16.1642 2.48175 17.2838 3.61604 16.554 4.3628Z" fill="white"/>
<path d="M27.8216 52.1976C27.8933 51.8195 28.2239 51.5454 28.6044 51.5454H42.1931C42.5767 51.5454 42.9042 51.8195 42.9759 52.1976L43.8617 56.8166H70.3334L66.0265 36.7969H4.77083L0.463867 56.8166H26.9356L27.8216 52.1976ZM42.386 44.9729C41.9431 44.9729 41.5876 44.6137 41.5876 44.1663C41.5876 43.7189 41.9431 43.3597 42.386 43.3597H44.2478C44.6907 43.3597 45.0462 43.7189 45.0462 44.1663C45.0462 44.6137 44.6907 44.9729 44.2478 44.9729H42.386ZM46.8988 48.8137H45.0369C44.594 48.8137 44.2385 48.4545 44.2385 48.0071C44.2385 47.5597 44.594 47.2005 45.0369 47.2005H46.8988C47.9498 47.2194 47.9467 48.7948 46.8988 48.8137ZM46.275 44.1663C46.275 43.7189 46.6306 43.3597 47.0734 43.3597H48.9384C49.9894 43.3786 49.9863 44.954 48.9384 44.9729H47.0734C46.6306 44.9729 46.275 44.6137 46.275 44.1663ZM51.5831 48.8137H49.7212C49.2784 48.8137 48.9228 48.4545 48.9228 48.0071C48.9228 47.5597 49.2784 47.2005 49.7212 47.2005H51.5831C52.6341 47.2194 52.631 48.7948 51.5831 48.8137ZM50.9594 44.1663C50.9594 43.7189 51.3149 43.3597 51.7578 43.3597H53.6196C54.6706 43.3786 54.6675 44.954 53.6196 44.9729H51.7578C51.3149 44.9729 50.9594 44.6137 50.9594 44.1663ZM56.2705 48.8137H54.4087C53.9658 48.8137 53.6103 48.4545 53.6103 48.0071C53.6103 47.5597 53.9658 47.2005 54.4087 47.2005H56.2705C57.3216 47.2194 57.3185 48.7948 56.2705 48.8137ZM55.6468 44.1663C55.6468 43.7189 56.0023 43.3597 56.4452 43.3597H58.3071C59.3581 43.3786 59.355 44.954 58.3071 44.9729H56.4452C56.0023 44.9729 55.6468 44.6137 55.6468 44.1663ZM66.4316 48.0071C66.4316 48.4545 66.076 48.8137 65.6332 48.8137H59.0963C58.6534 48.8137 58.2979 48.4545 58.2979 48.0071C58.2979 47.5597 58.6534 47.2005 59.0963 47.2005H65.6332C66.076 47.2005 66.4316 47.5597 66.4316 48.0071ZM63.7557 44.9729H61.1328C60.0818 44.954 60.0849 43.3754 61.1328 43.3597H63.7557C64.8067 43.3786 64.8036 44.9572 63.7557 44.9729ZM59.0932 39.5221H63.2411C63.684 39.5221 64.0395 39.8813 64.0395 40.3287C64.0395 40.7761 63.684 41.1353 63.2411 41.1353H59.0932C58.0422 41.1164 58.0453 39.5378 59.0932 39.5221ZM54.4088 39.5221H56.2707C56.7135 39.5221 57.0691 39.8813 57.0691 40.3287C57.0691 40.7761 56.7135 41.1353 56.2707 41.1353H54.4088C53.3578 41.1164 53.3609 39.541 54.4088 39.5221ZM49.7213 39.5221H51.5832C52.026 39.5221 52.3816 39.8813 52.3816 40.3287C52.3816 40.7761 52.026 41.1353 51.5832 41.1353H49.7213C48.6703 41.1164 48.6734 39.541 49.7213 39.5221ZM45.0338 39.5221H46.8957C47.3386 39.5221 47.6941 39.8813 47.6941 40.3287C47.6941 40.7761 47.3386 41.1353 46.8957 41.1353H45.0338C43.9828 41.1164 43.9859 39.541 45.0338 39.5221ZM40.3495 39.5221H42.2113C42.6542 39.5221 43.0097 39.8813 43.0097 40.3287C43.0097 40.7761 42.6542 41.1353 42.2113 41.1353H40.3495C39.2984 41.1164 39.3016 39.541 40.3495 39.5221ZM39.5635 44.9729H37.7017C37.2588 44.9729 36.9033 44.6137 36.9033 44.1663C36.9033 43.7189 37.2588 43.3597 37.7017 43.3597H39.5635C40.6145 43.3786 40.6114 44.954 39.5635 44.9729ZM35.662 39.5221H37.5239C37.9667 39.5221 38.3223 39.8813 38.3223 40.3287C38.3223 40.7761 37.9667 41.1353 37.5239 41.1353H35.662C34.611 41.1164 34.6141 39.541 35.662 39.5221ZM34.8792 44.9729H33.0173C32.5744 44.9729 32.2189 44.6137 32.2189 44.1663C32.2189 43.7189 32.5744 43.3597 33.0173 43.3597H34.8792C35.9302 43.3786 35.9271 44.954 34.8792 44.9729ZM30.9776 39.5221H32.8426C33.2855 39.5221 33.641 39.8813 33.641 40.3287C33.641 40.7761 33.2855 41.1353 32.8426 41.1353H30.9776C29.9266 41.1164 29.9297 39.541 30.9776 39.5221ZM30.1917 44.9729H28.3298C27.887 44.9729 27.5314 44.6137 27.5314 44.1663C27.5314 43.7189 27.887 43.3597 28.3298 43.3597H30.1917C31.2427 43.3786 31.2396 44.954 30.1917 44.9729ZM26.2902 39.5221H28.152C28.5949 39.5221 28.9504 39.8813 28.9504 40.3287C28.9504 40.7761 28.5949 41.1353 28.152 41.1353H26.2902C25.2392 41.1164 25.2423 39.541 26.2902 39.5221ZM25.5042 44.9729H23.6424C23.1995 44.9729 22.844 44.6137 22.844 44.1663C22.844 43.7189 23.1995 43.3597 23.6424 43.3597H25.5042C26.5553 43.3786 26.5521 44.954 25.5042 44.9729ZM21.6058 39.5221H23.4677C23.9105 39.5221 24.2661 39.8813 24.2661 40.3287C24.2661 40.7761 23.9105 41.1353 23.4677 41.1353H21.6058C20.5548 41.1164 20.5579 39.541 21.6058 39.5221ZM20.8199 44.9729H18.958C18.5152 44.9729 18.1596 44.6137 18.1596 44.1663C18.1596 43.7189 18.5152 43.3597 18.958 43.3597H20.8199C21.8709 43.3786 21.8678 44.954 20.8199 44.9729ZM16.9183 39.5221H18.7833C19.2262 39.5221 19.5817 39.8813 19.5817 40.3287C19.5817 40.7761 19.2262 41.1353 18.7833 41.1353H16.9183C15.8673 41.1164 15.8704 39.541 16.9183 39.5221ZM16.1324 44.9729H14.2674C13.8246 44.9729 13.469 44.6137 13.469 44.1663C13.469 43.7189 13.8246 43.3597 14.2674 43.3597H16.1324C17.1834 43.3786 17.1803 44.954 16.1324 44.9729ZM12.2309 39.5221H14.0928C14.5356 39.5221 14.8912 39.8813 14.8912 40.3287C14.8912 40.7761 14.5356 41.1353 14.0928 41.1353H12.2309C11.1799 41.1164 11.183 39.541 12.2309 39.5221ZM7.54651 39.5221H9.40838C9.85125 39.5221 10.2068 39.8813 10.2068 40.3287C10.2068 40.7761 9.85125 41.1353 9.40838 41.1353H7.54651C6.4955 41.1164 6.49861 39.541 7.54651 39.5221ZM6.78554 43.3597H11.448C12.4991 43.3786 12.4959 44.9572 11.448 44.9729H6.78554C5.73453 44.954 5.73764 43.3754 6.78554 43.3597ZM9.40845 48.8137H5.94978C4.89876 48.7948 4.90188 47.2162 5.94978 47.2005H9.40845C10.4595 47.2194 10.4563 48.7979 9.40845 48.8137ZM14.0959 48.8137H12.2341C11.7912 48.8137 11.4357 48.4545 11.4357 48.0071C11.4357 47.5597 11.7912 47.2005 12.2341 47.2005H14.0959C15.1469 47.2194 15.1438 48.7948 14.0959 48.8137ZM18.7834 48.8137H16.9184C16.4756 48.8137 16.12 48.4545 16.12 48.0071C16.12 47.5597 16.4756 47.2005 16.9184 47.2005H18.7834C19.8344 47.2194 19.8313 48.7948 18.7834 48.8137ZM23.4678 48.8137H21.6059C21.1631 48.8137 20.8075 48.4545 20.8075 48.0071C20.8075 47.5597 21.1631 47.2005 21.6059 47.2005H23.4678C24.5188 47.2194 24.5157 48.7948 23.4678 48.8137ZM26.2903 47.2005H41.9525C43.0066 47.2194 42.9973 48.7979 41.9525 48.8137H26.2903C25.2362 48.7948 25.2455 47.2162 26.2903 47.2005Z" fill="white"/>
<path d="M0.813427 59.9866C0.869564 60.2418 1.09411 60.4214 1.35297 60.4214H69.4477C69.7066 60.4214 69.9311 60.2418 69.9872 59.9866L70.3334 58.4301L0.467041 58.4269L0.813219 59.9834L0.813427 59.9866Z" fill="white"/>
<path d="M29.2626 53.1586L28.564 56.8166H42.2366L41.538 53.1586H29.2626Z" fill="white"/>
<path d="M36.7863 16.0561V26.6822H34.6487V15.3102L36.7863 16.0561Z" fill="#480DBE"/>
<path d="M28.2468 15.0649C28.2468 12.3471 29.8445 10.8655 31.7177 10.8655C33.5908 10.8655 33.8553 11.1108 35.9818 12.1018C38.1084 13.0929 38.6483 13.3381 39.7171 13.3381C40.7859 13.3381 41.3148 12.5923 41.3148 11.1108H43.1769C43.4414 14.0738 41.5792 15.3101 39.7061 15.3101C37.8329 15.3101 37.304 15.0649 35.4419 14.0738C33.5798 13.0827 33.0399 12.8375 31.9711 12.8375C30.9023 12.8375 30.3734 13.5834 30.109 15.3101L28.2468 15.0649Z" fill="#480DBE"/>
<path d="M35.6577 33.1087C26.7206 33.1087 19.1299 26.0564 19.1299 17.7826C19.1299 9.50888 26.7206 2.45654 35.6577 2.45654C44.5947 2.45654 52.1854 9.50888 52.1854 17.7826C52.1854 26.0564 44.5947 33.1087 35.6577 33.1087ZM35.6577 4.08698C27.2933 4.08698 20.7191 10.0391 20.7191 17.7826C20.7191 25.5261 27.2933 31.4783 35.6577 31.4783C44.022 31.4783 50.2784 25.5261 50.2784 17.7826C50.2784 10.0391 44.022 4.08698 35.6577 4.08698Z" fill="#480DBE"/>
</svg>
