<svg width="80" height="61" viewBox="0 0 80 61" fill="none" xmlns="http://www.w3.org/2000/svg">
<g clip-path="url(#clip0_24_70)">
<path d="M79.1436 35.5971C78.8811 36.3623 78.2812 37.0465 77.4061 37.4587L48.6093 50.969C47.25 51.6048 45.8562 51.982 44.4406 52.1005C43.025 52.2109 41.5688 52.0654 40.0968 51.6586L33.8719 49.9264C32.0563 49.4227 30.2469 49.2449 28.4719 49.3876C26.8469 49.5197 25.2563 49.9184 23.7125 50.5865L14.5533 36.8658L25.4661 31.7472C27.4036 30.8367 29.3943 30.2979 31.4192 30.1416C33.4442 29.9773 35.5161 30.1901 37.6192 30.7693L54.6504 35.5C55.3223 35.6859 55.8817 36.0307 56.3129 36.4725C57.0817 37.2727 57.3598 38.3421 57.016 39.3497C56.991 39.3982 56.9754 39.4521 56.9598 39.5006C56.3285 41.0603 54.3598 41.9278 52.5192 41.459C52.4567 41.4375 52.4004 41.4186 52.3348 41.4052L37.982 37.4181C37.2789 37.2242 36.5351 37.5555 36.3101 38.1616C36.0852 38.7678 36.4695 39.409 37.1664 39.6029L51.6224 43.6169C53.2693 44.0722 54.9755 43.9078 56.4068 43.2801C57.863 42.639 59.0381 41.4806 59.5193 40.1282C59.7036 39.6325 59.8005 39.1288 59.8224 38.6034L73.9664 31.9682C74.8382 31.5614 75.8289 31.4914 76.7257 31.7257C77.6133 31.952 78.407 32.4693 78.8789 33.2155C79.3382 33.9699 79.4101 34.8238 79.1445 35.597L79.1436 35.5971ZM60.5124 30.3358L54.6406 33.0864L55.4562 33.3127C56.5937 33.6306 57.5937 34.2152 58.3531 35.0098C58.7218 35.3897 59.0156 35.8019 59.25 36.2437L67.434 32.4102C67.3715 32.2863 67.3058 32.1623 67.2246 32.0438C65.9277 29.9829 62.9031 29.2098 60.5124 30.3358ZM9.54364 33.9835C9.18427 33.4528 8.39052 33.2723 7.77492 33.5767L1.34996 36.7691C0.73434 37.0789 0.518684 37.7631 0.878092 38.2938L15.3341 59.9345C15.6935 60.4652 16.4872 60.6511 17.1028 60.3413L23.5278 57.1489C24.1434 56.8445 24.359 56.1549 23.9996 55.6322L9.54364 33.9835ZM45.2156 10.8531C45.4156 10.6888 45.5344 10.4464 45.5344 10.185C45.5344 9.92373 45.4156 9.68935 45.2156 9.51694C45.025 9.35261 44.7438 9.24215 44.4406 9.24215C44.1375 9.24215 43.8656 9.34453 43.6656 9.51694C43.475 9.68935 43.3469 9.92373 43.3469 10.185C43.3469 10.4464 43.4656 10.6807 43.6656 10.8531C43.8656 11.0256 44.1375 11.1279 44.4406 11.1279C44.7438 11.136 45.025 11.0256 45.2156 10.8531ZM37.8406 17.9897H38.4V16.1955C38.4 15.0991 38.9187 14.105 39.7531 13.3884C40.3218 12.8981 41.0344 12.5398 41.8249 12.3539C41.1999 11.7882 40.8156 11.0285 40.8156 10.188C40.8156 9.32591 41.2249 8.53928 41.8781 7.98163C42.5343 7.41051 43.4468 7.0657 44.4468 7.0657C45.4561 7.0657 46.3593 7.41861 47.0155 7.98163C47.6717 8.54736 48.078 9.32591 48.078 10.188C48.078 11.0285 47.6936 11.7882 47.0686 12.3539C47.8686 12.5398 48.5811 12.8981 49.1405 13.3884C49.9717 14.105 50.4936 15.1045 50.4936 16.1955V17.9897H51.0529C51.1498 17.9897 51.2373 17.9547 51.3092 17.9008C51.3717 17.8469 51.4217 17.7634 51.4217 17.6799L51.4248 6.28679C51.4248 6.20328 51.3842 6.12784 51.3123 6.06588C51.2498 6.012 51.1592 5.97698 51.0561 5.97698H37.8401C37.7432 5.97698 37.6557 6.012 37.5838 6.06588C37.512 6.11976 37.4713 6.20328 37.4713 6.28679V17.6799C37.4713 17.7634 37.512 17.8388 37.5838 17.9008C37.6463 17.9547 37.7375 17.9897 37.8406 17.9897ZM45.8814 14.404H43.0096C42.4408 14.404 41.922 14.6034 41.5471 14.9348C41.1721 15.258 40.9315 15.7079 40.9315 16.1955V17.9897H47.9627V16.1955C47.9627 15.7052 47.7315 15.2499 47.3534 14.9348C46.969 14.6034 46.447 14.404 45.8814 14.404ZM30.391 20.8857V3.0788C30.391 1.66446 31.7348 0.506042 33.3754 0.506042H70.9346C72.5752 0.506042 73.9096 1.66446 73.9096 3.0788V20.8857C73.9096 22.3 72.5659 23.4585 70.9346 23.4585H33.3754C31.7379 23.4585 30.391 22.3 30.391 20.8857ZM57.2726 6.83121C57.2726 7.43736 57.8414 7.91956 58.5444 7.91956H68.0972C68.8004 7.91956 69.3691 7.42926 69.3691 6.83121C69.3691 6.22507 68.8003 5.74287 68.0972 5.74287H58.5444C57.8413 5.74287 57.2726 6.23048 57.2726 6.83121ZM57.2726 11.9821C57.2726 12.5883 57.8414 13.0705 58.5444 13.0705H68.0972C68.8004 13.0705 69.3691 12.5802 69.3691 11.9821C69.3691 11.376 68.8003 10.8938 68.0972 10.8938H58.5444C57.8413 10.8938 57.2726 11.3841 57.2726 11.9821ZM57.2726 17.1357C57.2726 17.7418 57.8414 18.224 58.5444 18.224H68.0972C68.8004 18.224 69.3691 17.7337 69.3691 17.1357C69.3691 16.5296 68.8003 16.0393 68.0972 16.0393H58.5444C57.8413 16.0393 57.2726 16.5269 57.2726 17.1357ZM34.9446 17.6799C34.9446 18.3695 35.2634 18.9891 35.7915 19.4444C36.3102 19.8916 37.0384 20.1745 37.8384 20.1745H51.0544C51.8544 20.1745 52.5731 19.8916 53.1012 19.4444C53.62 18.9891 53.9481 18.3695 53.9481 17.6799L53.9544 6.28677C53.9544 5.59712 53.6262 4.97753 53.1075 4.52222C52.5887 4.07502 51.8606 3.79215 51.0606 3.79215L37.8422 3.78946C37.0422 3.78946 36.3235 4.07233 35.7953 4.51953C35.2672 4.97481 34.9484 5.59442 34.9484 6.28408L34.9446 17.6799Z" fill="white"/>
</g>
<defs>
<clipPath id="clip0_24_70">
<rect width="80" height="60" fill="white" transform="translate(0 0.5)"/>
</clipPath>
</defs>
</svg>
