<svg width="506" height="506" viewBox="0 0 506 506" fill="none" xmlns="http://www.w3.org/2000/svg">
<rect width="506" height="506" fill="#0F1833"/>
<path d="M171.786 309.126C171.011 309.126 170.344 309.009 169.784 308.776C169.233 308.533 168.813 308.221 168.524 307.838C168.244 307.446 168.104 307.026 168.104 306.578C168.104 305.99 168.379 305.682 168.93 305.654C168.93 307.427 169.896 308.314 171.828 308.314C172.724 308.314 173.419 308.151 173.914 307.824C174.418 307.488 174.67 307.021 174.67 306.424C174.67 306.051 174.577 305.747 174.39 305.514C174.213 305.271 173.909 305.066 173.48 304.898C173.051 304.721 172.449 304.557 171.674 304.408C170.461 304.165 169.593 303.829 169.07 303.4C168.547 302.961 168.286 302.373 168.286 301.636C168.286 300.852 168.603 300.231 169.238 299.774C169.873 299.307 170.731 299.074 171.814 299.074C172.449 299.074 173.027 299.177 173.55 299.382C174.073 299.578 174.483 299.858 174.782 300.222C175.09 300.577 175.244 300.978 175.244 301.426C175.244 301.958 174.983 302.243 174.46 302.28C174.395 300.675 173.489 299.872 171.744 299.872C170.96 299.872 170.344 300.026 169.896 300.334C169.457 300.633 169.238 301.048 169.238 301.58C169.238 301.944 169.317 302.247 169.476 302.49C169.635 302.723 169.901 302.929 170.274 303.106C170.647 303.274 171.175 303.428 171.856 303.568C172.789 303.764 173.522 303.983 174.054 304.226C174.595 304.469 174.983 304.767 175.216 305.122C175.459 305.467 175.58 305.901 175.58 306.424C175.58 307.264 175.239 307.927 174.558 308.412C173.886 308.888 172.962 309.126 171.786 309.126ZM181.161 309.126C180.61 309.126 180.116 309.023 179.677 308.818C179.238 308.613 178.898 308.333 178.655 307.978C178.412 307.614 178.291 307.213 178.291 306.774V304.268C178.291 303.829 178.412 303.428 178.655 303.064C178.898 302.7 179.238 302.411 179.677 302.196C180.116 301.981 180.61 301.874 181.161 301.874C181.712 301.874 182.206 301.981 182.645 302.196C183.084 302.411 183.424 302.7 183.667 303.064C183.91 303.428 184.031 303.829 184.031 304.268V306.774C184.031 307.213 183.91 307.614 183.667 307.978C183.424 308.333 183.084 308.613 182.645 308.818C182.206 309.023 181.712 309.126 181.161 309.126ZM181.161 308.384C181.786 308.384 182.286 308.235 182.659 307.936C183.032 307.628 183.219 307.236 183.219 306.76V304.282C183.219 303.797 183.032 303.4 182.659 303.092C182.286 302.775 181.786 302.616 181.161 302.616C180.536 302.616 180.036 302.775 179.663 303.092C179.29 303.4 179.103 303.797 179.103 304.282V306.76C179.103 307.236 179.29 307.628 179.663 307.936C180.036 308.235 180.536 308.384 181.161 308.384ZM188.892 309.126C188.304 309.126 187.856 308.963 187.548 308.636C187.249 308.309 187.1 307.857 187.1 307.278V299.844C187.1 299.331 187.375 299.074 187.926 299.074V307.264C187.926 307.665 188.005 307.95 188.164 308.118C188.322 308.286 188.584 308.37 188.948 308.37C189.256 308.37 189.554 308.286 189.844 308.118C189.909 308.23 189.942 308.347 189.942 308.468C189.942 308.645 189.839 308.799 189.634 308.93C189.438 309.061 189.19 309.126 188.892 309.126ZM198.206 308.328C198.206 308.86 197.935 309.126 197.394 309.126V308.188C197.459 308.123 197.548 308.015 197.66 307.866L197.632 307.81C197.324 308.211 196.946 308.533 196.498 308.776C196.059 309.009 195.602 309.126 195.126 309.126C194.351 309.126 193.73 308.902 193.264 308.454C192.806 307.997 192.578 307.404 192.578 306.676V302.644C192.578 302.131 192.858 301.874 193.418 301.874V306.662C193.418 307.194 193.572 307.614 193.88 307.922C194.197 308.221 194.645 308.37 195.224 308.37C195.588 308.37 195.933 308.291 196.26 308.132C196.596 307.973 196.866 307.768 197.072 307.516C197.277 307.255 197.38 306.984 197.38 306.704V302.644C197.38 302.131 197.655 301.874 198.206 301.874V308.328ZM203.986 309.126C203.398 309.126 202.95 308.963 202.642 308.636C202.344 308.309 202.194 307.857 202.194 307.278V302.742H200.99C200.99 302.499 201.046 302.317 201.158 302.196C201.28 302.065 201.452 302 201.676 302H202.194V300.544C202.194 300.292 202.264 300.101 202.404 299.97C202.554 299.839 202.764 299.774 203.034 299.774V302H204.896C204.896 302.233 204.831 302.415 204.7 302.546C204.579 302.677 204.406 302.742 204.182 302.742H203.034V307.264C203.034 307.665 203.109 307.95 203.258 308.118C203.417 308.286 203.683 308.37 204.056 308.37C204.355 308.37 204.649 308.286 204.938 308.118C205.004 308.211 205.036 308.328 205.036 308.468C205.036 308.645 204.934 308.799 204.728 308.93C204.532 309.061 204.285 309.126 203.986 309.126ZM208.537 300.53C208.332 300.53 208.159 300.46 208.019 300.32C207.879 300.18 207.809 300.007 207.809 299.802C207.809 299.597 207.879 299.424 208.019 299.284C208.159 299.144 208.332 299.074 208.537 299.074C208.743 299.074 208.915 299.144 209.055 299.284C209.205 299.424 209.279 299.597 209.279 299.802C209.279 300.007 209.205 300.18 209.055 300.32C208.915 300.46 208.743 300.53 208.537 300.53ZM208.117 302.658C208.117 302.135 208.402 301.874 208.971 301.874V308.356C208.971 308.869 208.687 309.126 208.117 309.126V302.658ZM214.857 309.126C214.306 309.126 213.812 309.023 213.373 308.818C212.934 308.613 212.594 308.333 212.351 307.978C212.108 307.614 211.987 307.213 211.987 306.774V304.268C211.987 303.829 212.108 303.428 212.351 303.064C212.594 302.7 212.934 302.411 213.373 302.196C213.812 301.981 214.306 301.874 214.857 301.874C215.408 301.874 215.902 301.981 216.341 302.196C216.78 302.411 217.12 302.7 217.363 303.064C217.606 303.428 217.727 303.829 217.727 304.268V306.774C217.727 307.213 217.606 307.614 217.363 307.978C217.12 308.333 216.78 308.613 216.341 308.818C215.902 309.023 215.408 309.126 214.857 309.126ZM214.857 308.384C215.482 308.384 215.982 308.235 216.355 307.936C216.728 307.628 216.915 307.236 216.915 306.76V304.282C216.915 303.797 216.728 303.4 216.355 303.092C215.982 302.775 215.482 302.616 214.857 302.616C214.232 302.616 213.732 302.775 213.359 303.092C212.986 303.4 212.799 303.797 212.799 304.282V306.76C212.799 307.236 212.986 307.628 213.359 307.936C213.732 308.235 214.232 308.384 214.857 308.384ZM220.795 302.672C220.795 302.14 221.066 301.874 221.607 301.874V302.812C221.542 302.877 221.453 302.985 221.341 303.134L221.369 303.19C221.668 302.798 222.046 302.481 222.503 302.238C222.97 301.995 223.446 301.874 223.931 301.874C224.706 301.874 225.313 302.089 225.751 302.518C226.199 302.938 226.423 303.512 226.423 304.24V308.356C226.423 308.869 226.148 309.126 225.597 309.126V304.268C225.597 303.745 225.448 303.344 225.149 303.064C224.86 302.775 224.426 302.63 223.847 302.63C223.474 302.63 223.115 302.709 222.769 302.868C222.424 303.027 222.144 303.237 221.929 303.498C221.724 303.75 221.621 304.016 221.621 304.296V308.356C221.621 308.869 221.346 309.126 220.795 309.126V302.672ZM235.015 300.53C234.81 300.53 234.637 300.46 234.497 300.32C234.357 300.18 234.287 300.007 234.287 299.802C234.287 299.597 234.357 299.424 234.497 299.284C234.637 299.144 234.81 299.074 235.015 299.074C235.221 299.074 235.393 299.144 235.533 299.284C235.683 299.424 235.757 299.597 235.757 299.802C235.757 300.007 235.683 300.18 235.533 300.32C235.393 300.46 235.221 300.53 235.015 300.53ZM234.595 302.658C234.595 302.135 234.88 301.874 235.449 301.874V308.356C235.449 308.869 235.165 309.126 234.595 309.126V302.658ZM241.466 309.126C240.953 309.126 240.491 309.051 240.08 308.902C239.67 308.743 239.348 308.529 239.114 308.258C238.881 307.978 238.764 307.661 238.764 307.306C238.764 306.923 238.97 306.727 239.38 306.718C239.511 307.829 240.216 308.384 241.494 308.384C242.082 308.384 242.535 308.286 242.852 308.09C243.179 307.885 243.342 307.591 243.342 307.208C243.342 306.947 243.277 306.732 243.146 306.564C243.025 306.396 242.815 306.251 242.516 306.13C242.227 306.009 241.812 305.892 241.27 305.78C240.412 305.603 239.791 305.36 239.408 305.052C239.026 304.744 238.834 304.305 238.834 303.736C238.834 303.185 239.068 302.737 239.534 302.392C240.001 302.047 240.598 301.874 241.326 301.874C242.026 301.874 242.624 302.028 243.118 302.336C243.613 302.644 243.874 303.045 243.902 303.54C243.912 303.727 243.856 303.876 243.734 303.988C243.622 304.091 243.454 304.147 243.23 304.156C243.193 303.661 243.006 303.279 242.67 303.008C242.344 302.728 241.896 302.588 241.326 302.588C240.832 302.588 240.43 302.695 240.122 302.91C239.814 303.115 239.66 303.391 239.66 303.736C239.66 304.081 239.791 304.352 240.052 304.548C240.323 304.744 240.78 304.907 241.424 305.038C242.414 305.234 243.118 305.495 243.538 305.822C243.958 306.139 244.168 306.587 244.168 307.166C244.168 307.773 243.926 308.253 243.44 308.608C242.955 308.953 242.297 309.126 241.466 309.126ZM252.049 309.126C251.872 309.061 251.727 308.953 251.615 308.804C251.513 308.655 251.461 308.491 251.461 308.314C251.461 308.202 251.485 308.085 251.531 307.964L254.975 299.354C255.013 299.261 255.069 299.191 255.143 299.144C255.218 299.097 255.307 299.074 255.409 299.074C255.512 299.074 255.601 299.102 255.675 299.158C255.759 299.205 255.815 299.27 255.843 299.354L259.287 307.95C259.334 308.071 259.357 308.188 259.357 308.3C259.357 308.487 259.301 308.655 259.189 308.804C259.087 308.953 258.942 309.061 258.755 309.126L257.551 305.99H253.281L252.049 309.126ZM257.243 305.178L255.255 300.082L255.185 300.124L255.367 300.6L253.575 305.178H257.243ZM264.075 309.126C263.487 309.126 263.039 308.963 262.731 308.636C262.432 308.309 262.283 307.857 262.283 307.278V299.844C262.283 299.331 262.558 299.074 263.109 299.074V307.264C263.109 307.665 263.188 307.95 263.347 308.118C263.506 308.286 263.767 308.37 264.131 308.37C264.439 308.37 264.738 308.286 265.027 308.118C265.092 308.23 265.125 308.347 265.125 308.468C265.125 308.645 265.022 308.799 264.817 308.93C264.621 309.061 264.374 309.126 264.075 309.126ZM269.596 309.126C269.185 309.126 268.924 308.93 268.812 308.538L266.922 301.944C267.062 301.897 267.179 301.874 267.272 301.874C267.58 301.874 267.776 302.023 267.86 302.322L269.302 307.614L269.176 308.076L269.232 308.104L270.954 302.168C271.01 301.972 271.141 301.874 271.346 301.874C271.439 301.874 271.523 301.902 271.598 301.958C271.673 302.014 271.719 302.084 271.738 302.168L273.306 307.614L273.18 308.076L273.236 308.104L274.818 302.322C274.902 302.023 275.103 301.874 275.42 301.874C275.513 301.874 275.63 301.897 275.77 301.944L273.866 308.538C273.81 308.725 273.712 308.869 273.572 308.972C273.441 309.075 273.283 309.126 273.096 309.126L271.234 302.784L271.192 302.798L271.304 303.232L269.596 309.126ZM280.424 309.126C279.612 309.126 278.958 308.916 278.464 308.496C277.969 308.067 277.722 307.497 277.722 306.788C277.722 306.069 277.969 305.5 278.464 305.08C278.958 304.651 279.63 304.436 280.48 304.436C281.441 304.436 282.206 304.781 282.776 305.472L282.818 305.444C282.743 305.332 282.65 305.22 282.538 305.108V304.282C282.538 303.75 282.374 303.339 282.048 303.05C281.721 302.761 281.259 302.616 280.662 302.616C279.607 302.616 278.87 303.055 278.45 303.932C278.338 303.848 278.249 303.75 278.184 303.638C278.118 303.526 278.086 303.419 278.086 303.316C278.086 303.083 278.212 302.854 278.464 302.63C278.716 302.406 279.042 302.224 279.444 302.084C279.845 301.944 280.256 301.874 280.676 301.874C281.506 301.874 282.16 302.089 282.636 302.518C283.121 302.947 283.364 303.535 283.364 304.282V308.342C283.364 308.865 283.088 309.126 282.538 309.126V308.398C282.706 308.23 282.808 308.109 282.846 308.034L282.804 307.992C282.505 308.356 282.15 308.636 281.74 308.832C281.338 309.028 280.9 309.126 280.424 309.126ZM280.466 308.398C281.11 308.398 281.618 308.253 281.992 307.964C282.374 307.675 282.566 307.283 282.566 306.788C282.566 306.293 282.379 305.901 282.006 305.612C281.642 305.323 281.138 305.178 280.494 305.178C279.887 305.178 279.411 305.323 279.066 305.612C278.73 305.892 278.562 306.284 278.562 306.788C278.562 307.292 278.73 307.689 279.066 307.978C279.402 308.258 279.868 308.398 280.466 308.398ZM286.051 311.912C285.836 311.912 285.664 311.851 285.533 311.73C285.412 311.618 285.346 311.45 285.337 311.226C285.477 311.254 285.65 311.268 285.855 311.268C286.303 311.268 286.667 311.133 286.947 310.862C287.236 310.601 287.512 310.143 287.773 309.49L288.081 308.776L285.295 301.958C285.407 301.902 285.538 301.874 285.687 301.874C285.818 301.874 285.939 301.916 286.051 302C286.172 302.075 286.261 302.182 286.317 302.322L288.445 307.726L288.249 308.216L288.319 308.244L290.671 302.322C290.783 302.023 290.988 301.874 291.287 301.874C291.436 301.874 291.567 301.902 291.679 301.958L288.501 309.728C288.202 310.475 287.857 311.025 287.465 311.38C287.082 311.735 286.611 311.912 286.051 311.912ZM296.406 309.126C295.893 309.126 295.431 309.051 295.02 308.902C294.609 308.743 294.287 308.529 294.054 308.258C293.821 307.978 293.704 307.661 293.704 307.306C293.704 306.923 293.909 306.727 294.32 306.718C294.451 307.829 295.155 308.384 296.434 308.384C297.022 308.384 297.475 308.286 297.792 308.09C298.119 307.885 298.282 307.591 298.282 307.208C298.282 306.947 298.217 306.732 298.086 306.564C297.965 306.396 297.755 306.251 297.456 306.13C297.167 306.009 296.751 305.892 296.21 305.78C295.351 305.603 294.731 305.36 294.348 305.052C293.965 304.744 293.774 304.305 293.774 303.736C293.774 303.185 294.007 302.737 294.474 302.392C294.941 302.047 295.538 301.874 296.266 301.874C296.966 301.874 297.563 302.028 298.058 302.336C298.553 302.644 298.814 303.045 298.842 303.54C298.851 303.727 298.795 303.876 298.674 303.988C298.562 304.091 298.394 304.147 298.17 304.156C298.133 303.661 297.946 303.279 297.61 303.008C297.283 302.728 296.835 302.588 296.266 302.588C295.771 302.588 295.37 302.695 295.062 302.91C294.754 303.115 294.6 303.391 294.6 303.736C294.6 304.081 294.731 304.352 294.992 304.548C295.263 304.744 295.72 304.907 296.364 305.038C297.353 305.234 298.058 305.495 298.478 305.822C298.898 306.139 299.108 306.587 299.108 307.166C299.108 307.773 298.865 308.253 298.38 308.608C297.895 308.953 297.237 309.126 296.406 309.126ZM306.751 299.956C306.751 299.676 306.826 299.461 306.975 299.312C307.134 299.153 307.358 299.074 307.647 299.074L313.597 307.964L313.667 307.908L313.373 307.432V299.074C313.98 299.074 314.283 299.368 314.283 299.956V308.258C314.283 308.529 314.204 308.743 314.045 308.902C313.896 309.051 313.686 309.126 313.415 309.126L307.437 300.208L307.367 300.264L307.661 300.726V308.244C307.661 308.533 307.582 308.753 307.423 308.902C307.274 309.051 307.05 309.126 306.751 309.126V299.956ZM320.238 309.126C319.688 309.126 319.198 309.023 318.768 308.818C318.348 308.603 318.017 308.309 317.774 307.936C317.541 307.553 317.424 307.119 317.424 306.634V304.408C317.424 303.932 317.546 303.503 317.788 303.12C318.04 302.737 318.381 302.434 318.81 302.21C319.24 301.986 319.716 301.874 320.238 301.874C320.752 301.874 321.223 301.986 321.652 302.21C322.082 302.425 322.418 302.728 322.66 303.12C322.912 303.503 323.038 303.927 323.038 304.394V305.36C323.038 305.463 322.996 305.556 322.912 305.64C322.828 305.715 322.735 305.752 322.632 305.752H318.25V306.62C318.25 307.171 318.423 307.605 318.768 307.922C319.114 308.23 319.604 308.384 320.238 308.384C320.873 308.384 321.363 308.239 321.708 307.95C322.063 307.661 322.24 307.264 322.24 306.76C322.408 306.76 322.558 306.821 322.688 306.942C322.828 307.063 322.898 307.203 322.898 307.362C322.898 307.661 322.772 307.95 322.52 308.23C322.268 308.501 321.937 308.72 321.526 308.888C321.125 309.047 320.696 309.126 320.238 309.126ZM322.226 305.024V304.394C322.226 303.871 322.04 303.447 321.666 303.12C321.302 302.784 320.826 302.616 320.238 302.616C319.65 302.616 319.17 302.784 318.796 303.12C318.432 303.447 318.25 303.871 318.25 304.394V305.024H322.226ZM328.105 309.126C327.293 309.126 326.639 308.916 326.145 308.496C325.65 308.067 325.403 307.497 325.403 306.788C325.403 306.069 325.65 305.5 326.145 305.08C326.639 304.651 327.311 304.436 328.161 304.436C329.122 304.436 329.887 304.781 330.457 305.472L330.499 305.444C330.424 305.332 330.331 305.22 330.219 305.108V304.282C330.219 303.75 330.055 303.339 329.729 303.05C329.402 302.761 328.94 302.616 328.343 302.616C327.288 302.616 326.551 303.055 326.131 303.932C326.019 303.848 325.93 303.75 325.865 303.638C325.799 303.526 325.767 303.419 325.767 303.316C325.767 303.083 325.893 302.854 326.145 302.63C326.397 302.406 326.723 302.224 327.125 302.084C327.526 301.944 327.937 301.874 328.357 301.874C329.187 301.874 329.841 302.089 330.317 302.518C330.802 302.947 331.045 303.535 331.045 304.282V308.342C331.045 308.865 330.769 309.126 330.219 309.126V308.398C330.387 308.23 330.489 308.109 330.527 308.034L330.485 307.992C330.186 308.356 329.831 308.636 329.421 308.832C329.019 309.028 328.581 309.126 328.105 309.126ZM328.147 308.398C328.791 308.398 329.299 308.253 329.673 307.964C330.055 307.675 330.247 307.283 330.247 306.788C330.247 306.293 330.06 305.901 329.687 305.612C329.323 305.323 328.819 305.178 328.175 305.178C327.568 305.178 327.092 305.323 326.747 305.612C326.411 305.892 326.243 306.284 326.243 306.788C326.243 307.292 326.411 307.689 326.747 307.978C327.083 308.258 327.549 308.398 328.147 308.398ZM336.86 302.63C336.533 302.63 336.23 302.705 335.95 302.854C335.679 303.003 335.465 303.209 335.306 303.47C335.147 303.722 335.068 303.997 335.068 304.296V308.356C335.068 308.869 334.793 309.126 334.242 309.126V302.672C334.242 302.14 334.513 301.874 335.054 301.874V302.742C334.923 302.891 334.825 303.022 334.76 303.134L334.802 303.19C335.418 302.313 336.169 301.874 337.056 301.874C337.327 301.874 337.546 301.939 337.714 302.07C337.891 302.191 337.98 302.341 337.98 302.518C337.98 302.621 337.947 302.728 337.882 302.84C337.602 302.7 337.261 302.63 336.86 302.63ZM340.762 299.844C340.762 299.331 341.042 299.074 341.602 299.074V302.602C341.565 302.639 341.518 302.686 341.462 302.742C341.416 302.798 341.364 302.863 341.308 302.938L341.35 303.008C341.64 302.672 341.985 302.401 342.386 302.196C342.788 301.981 343.212 301.874 343.66 301.874C344.482 301.874 345.14 302.089 345.634 302.518C346.138 302.938 346.39 303.507 346.39 304.226V306.76C346.39 307.488 346.138 308.067 345.634 308.496C345.14 308.916 344.477 309.126 343.646 309.126C342.741 309.126 341.971 308.72 341.336 307.908L341.308 307.964C341.336 308.011 341.43 308.127 341.588 308.314C341.588 308.594 341.518 308.799 341.378 308.93C341.248 309.061 341.042 309.126 340.762 309.126V299.844ZM343.576 308.37C344.202 308.37 344.692 308.23 345.046 307.95C345.401 307.661 345.578 307.259 345.578 306.746V304.24C345.578 303.745 345.401 303.353 345.046 303.064C344.701 302.775 344.22 302.63 343.604 302.63C343.25 302.63 342.918 302.7 342.61 302.84C342.302 302.98 342.055 303.171 341.868 303.414C341.682 303.647 341.588 303.899 341.588 304.17V306.816C341.588 307.096 341.677 307.357 341.854 307.6C342.032 307.833 342.274 308.02 342.582 308.16C342.89 308.3 343.222 308.37 343.576 308.37ZM349.302 311.912C349.087 311.912 348.915 311.851 348.784 311.73C348.663 311.618 348.597 311.45 348.588 311.226C348.728 311.254 348.901 311.268 349.106 311.268C349.554 311.268 349.918 311.133 350.198 310.862C350.487 310.601 350.763 310.143 351.024 309.49L351.332 308.776L348.546 301.958C348.658 301.902 348.789 301.874 348.938 301.874C349.069 301.874 349.19 301.916 349.302 302C349.423 302.075 349.512 302.182 349.568 302.322L351.696 307.726L351.5 308.216L351.57 308.244L353.922 302.322C354.034 302.023 354.239 301.874 354.538 301.874C354.687 301.874 354.818 301.902 354.93 301.958L351.752 309.728C351.453 310.475 351.108 311.025 350.716 311.38C350.333 311.735 349.862 311.912 349.302 311.912Z" fill="#666666"/>
<path d="M234.05 271.675C229.55 271.675 225.625 271.125 222.275 270.025C218.925 268.925 216.35 267.375 214.55 265.375C212.8 263.325 211.925 260.95 211.925 258.25C211.925 254.15 214.7 252.1 220.25 252.1C220.45 255.9 221.725 258.775 224.075 260.725C226.475 262.675 229.825 263.65 234.125 263.65C237.675 263.65 240.425 263.05 242.375 261.85C244.325 260.6 245.3 258.875 245.3 256.675C245.3 255.225 244.925 254.05 244.175 253.15C243.425 252.2 242.15 251.375 240.35 250.675C238.55 249.925 235.925 249.175 232.475 248.425C227.575 247.275 223.7 246 220.85 244.6C218.05 243.2 216.025 241.525 214.775 239.575C213.525 237.575 212.9 235.1 212.9 232.15C212.9 229.3 213.725 226.8 215.375 224.65C217.075 222.5 219.45 220.825 222.5 219.625C225.6 218.425 229.15 217.825 233.15 217.825C237 217.825 240.425 218.35 243.425 219.4C246.475 220.4 248.85 221.825 250.55 223.675C252.3 225.525 253.175 227.65 253.175 230.05C253.175 233.75 250.5 235.675 245.15 235.825C244.85 232.375 243.75 229.85 241.85 228.25C239.95 226.65 237.05 225.85 233.15 225.85C229.8 225.85 227.225 226.4 225.425 227.5C223.625 228.6 222.725 230.15 222.725 232.15C222.725 233.55 223.075 234.725 223.775 235.675C224.475 236.575 225.65 237.375 227.3 238.075C228.95 238.725 231.3 239.4 234.35 240.1C239.5 241.25 243.575 242.55 246.575 244C249.575 245.4 251.75 247.125 253.1 249.175C254.45 251.175 255.125 253.65 255.125 256.6C255.125 259.65 254.25 262.325 252.5 264.625C250.8 266.875 248.35 268.625 245.15 269.875C242 271.075 238.3 271.675 234.05 271.675ZM271.771 271.675C269.621 271.425 267.921 270.675 266.671 269.425C265.471 268.175 264.871 266.6 264.871 264.7C264.871 263.25 265.221 261.75 265.921 260.2L283.096 221.125C284.046 218.925 285.696 217.825 288.046 217.825C290.346 217.825 291.971 218.925 292.921 221.125L310.096 260.2C310.796 261.85 311.146 263.35 311.146 264.7C311.146 266.6 310.521 268.175 309.271 269.425C308.071 270.675 306.371 271.425 304.171 271.675L297.871 257.425H278.146L271.771 271.675ZM294.796 248.875L286.546 228.325L285.646 228.7L287.446 233.35L281.146 248.875H294.796ZM324.448 225.775C324.448 223.325 325.273 221.4 326.923 220C328.573 218.55 330.798 217.825 333.598 217.825L358.948 257.425L359.698 256.825L356.623 251.725V217.825C359.873 217.825 362.323 218.45 363.973 219.7C365.673 220.95 366.523 222.8 366.523 225.25V264.85C366.523 266.7 365.723 268.3 364.123 269.65C362.573 271 360.773 271.675 358.723 271.675L332.023 229.9L331.273 230.575L334.348 235.675V264.25C334.348 266.7 333.498 268.55 331.798 269.8C330.148 271.05 327.698 271.675 324.448 271.675V225.775Z" fill="white"/>
<path d="M199 234.766C199 217.802 184.421 204 166.5 204C148.579 204 134 217.802 134 234.766C134 246.56 141.049 256.819 151.366 261.98C151.374 262.046 151.371 262.11 151.386 262.175L155.232 280.432C155.478 281.61 156.568 282.151 157.835 282.151H162.323C162.783 283.407 163.628 283.407 164.608 283.407H167.261C168.24 283.407 169.087 283.407 169.547 282.151H174.019C175.29 282.151 176.383 281.57 176.624 280.388L180.301 262.589C191.339 257.667 199 247.061 199 234.766ZM171.829 277.128H160.016L157.273 264.218C160.2 265.039 163.295 265.509 166.501 265.509C169.239 265.509 171.899 265.151 174.442 264.545L171.829 277.128ZM162.676 260.112L158.996 243.336C159.056 243.34 159.114 243.351 159.175 243.351C160.328 243.351 161.325 242.587 161.957 241.238C161.994 241.196 162.028 241.154 162.059 241.107C162.12 241.018 162.174 240.953 162.218 240.909C162.26 240.954 162.315 241.017 162.374 241.106C162.413 241.163 162.458 241.217 162.508 241.266C163.143 242.589 164.132 243.337 165.272 243.337C165.907 243.337 167.094 243.089 167.953 241.431C167.962 241.416 167.971 241.4 167.979 241.384C168.008 241.325 168.037 241.263 168.065 241.201C168.092 241.171 168.114 241.139 168.138 241.106C168.199 241.017 168.254 240.952 168.297 240.908C168.341 240.952 168.396 241.017 168.457 241.106C168.484 241.149 168.518 241.188 168.552 241.227C169.182 242.583 170.182 243.35 171.341 243.35C172.495 243.35 173.493 242.585 174.124 241.235C174.159 241.194 174.195 241.151 174.226 241.105C174.285 241.017 174.34 240.952 174.382 240.908C174.417 240.942 174.462 241.001 174.506 241.061L170.327 260.11C170.319 260.148 170.331 260.186 170.327 260.224C169.075 260.391 167.804 260.507 166.503 260.507C165.201 260.507 163.932 260.391 162.68 260.224C162.672 260.187 162.685 260.151 162.676 260.112ZM173.123 259.707L177.267 240.817C177.395 240.242 177.068 239.696 176.531 239.452C175.343 238.031 173.406 238.007 172.225 239.436C172.032 239.578 171.878 239.771 171.79 239.998C171.624 240.424 171.449 240.664 171.338 240.78C171.225 240.665 171.05 240.425 170.884 239.998C170.807 239.799 170.669 239.627 170.496 239.491C169.7 238.493 168.79 238.335 168.295 238.335C167.805 238.335 166.905 238.49 166.113 239.467C165.94 239.603 165.805 239.781 165.721 239.99C165.679 240.098 165.632 240.202 165.594 240.277C165.589 240.287 165.582 240.299 165.577 240.309C165.459 240.541 165.347 240.684 165.27 240.763C165.159 240.649 164.985 240.412 164.821 239.992C164.738 239.784 164.587 239.604 164.399 239.469C163.804 238.734 163.039 238.333 162.215 238.333C161.731 238.333 160.845 238.485 160.061 239.435C159.867 239.577 159.713 239.769 159.626 239.996C159.46 240.423 159.284 240.663 159.172 240.778C159.061 240.664 158.884 240.424 158.719 239.996C158.526 239.502 157.962 239.173 157.407 239.173C157.182 239.173 156.985 239.239 156.804 239.332C156.79 239.334 156.777 239.329 156.762 239.332C156.044 239.472 155.583 240.138 155.733 240.816L159.877 259.706C148.065 256.905 139.306 246.817 139.306 234.766C139.306 220.547 151.481 209.023 166.5 209.023C181.519 209.023 193.694 220.547 193.694 234.766C193.694 246.817 184.935 256.905 173.123 259.707Z" fill="#FD6931"/>
<path d="M163.71 214.953C163.173 214.953 162.64 214.974 162.113 215.016C161.354 215.076 160.791 215.723 160.852 216.461C160.913 217.16 161.513 217.691 162.224 217.691C162.261 217.691 162.301 217.689 162.338 217.687C162.79 217.651 163.249 217.632 163.71 217.632C164.471 217.632 165.087 217.032 165.087 216.292C165.087 215.553 164.471 214.953 163.71 214.953Z" fill="#FD6931"/>
<path d="M156.135 216.44C149.556 219.371 145.304 225.804 145.304 232.828C145.304 233.541 145.899 234.12 146.636 234.12C147.372 234.12 147.967 233.541 147.967 232.828C147.967 226.81 151.609 221.299 157.245 218.787C157.913 218.49 158.207 217.723 157.9 217.074C157.592 216.427 156.8 216.142 156.135 216.44Z" fill="#FD6931"/>
<path d="M159.444 269.17C159.361 269.686 159.833 270.156 160.5 270.22L169.372 271.078C169.423 271.083 169.474 271.085 169.524 271.085C170.129 271.085 170.653 270.737 170.73 270.261C170.812 269.746 170.34 269.276 169.674 269.212L160.802 268.354C160.135 268.294 159.529 268.656 159.444 269.17Z" fill="#FD6931"/>
<path d="M169.515 274.585L161.006 273.83C160.24 273.768 159.542 274.148 159.446 274.692C159.351 275.236 159.893 275.732 160.659 275.799L169.168 276.554C169.227 276.559 169.286 276.562 169.343 276.562C170.038 276.562 170.64 276.194 170.728 275.692C170.823 275.149 170.281 274.653 169.515 274.585Z" fill="#FD6931"/>
</svg>
