<svg width="71" height="55" viewBox="0 0 71 55" fill="none" xmlns="http://www.w3.org/2000/svg">
<g clip-path="url(#clip0_1_31)">
<path fill-rule="evenodd" clip-rule="evenodd" d="M27.4718 41.6378C27.6857 42.1279 27.919 42.6038 28.1702 43.0629C29.571 45.6204 31.5341 47.6702 33.8386 48.9415V40.9404C31.6111 40.9891 29.473 41.231 27.4718 41.6378ZM25.8945 34.5788C25.9676 36.5616 26.323 38.4528 26.9133 40.193C29.0911 39.7375 31.4182 39.4681 33.8386 39.4174V34.5788H25.8945ZM26.9141 27.4415C26.323 29.1824 25.9676 31.0736 25.8945 33.0557H33.8386V28.2171C31.419 28.1663 29.0919 27.897 26.9141 27.4415ZM33.8386 18.6908C31.5418 19.9579 29.5826 22.0014 28.1811 24.5533C27.926 25.0179 27.6896 25.4995 27.4726 25.996C29.473 26.4021 31.6111 26.644 33.8386 26.6926V18.6908ZM25.8338 25.6187C24.307 25.2246 22.8759 24.7324 21.5639 24.1556C21.9302 23.7473 22.3198 23.356 22.7297 22.9837C24.8974 21.0185 27.6514 19.5849 30.7337 18.9165C29.1284 20.24 27.7494 21.926 26.6792 23.8749C26.372 24.4348 26.0897 25.0172 25.8346 25.6187H25.8338ZM24.2145 33.055C24.2876 30.9431 24.6625 28.9237 25.2878 27.0586C23.5938 26.6165 22.0064 26.0573 20.5566 25.3994C18.9459 27.6163 17.9534 30.2352 17.801 33.055H24.2145ZM25.2886 40.5738C24.6625 38.7087 24.2868 36.6899 24.2145 34.5781H17.801C17.9534 37.3972 18.9459 40.016 20.5566 42.2337C22.0064 41.5758 23.5938 41.0159 25.2886 40.5738ZM30.733 48.7166C27.6514 48.0481 24.8974 46.6146 22.7297 44.6501C22.3191 44.2778 21.9302 43.8872 21.5639 43.4782C22.8759 42.9014 24.3078 42.4085 25.8354 42.0144C26.0874 42.6074 26.365 43.1821 26.6683 43.7349C27.7417 45.6944 29.1238 47.3881 30.7337 48.7166H30.733ZM38.9097 18.9806C40.3773 20.2076 41.6536 21.7391 42.6741 23.4991C43.0559 24.1584 43.4028 24.8501 43.7108 25.5701C45.1684 25.1844 46.5372 24.7084 47.7957 24.1549C46.8196 23.0669 45.6817 22.1029 44.4155 21.292C42.7728 20.2407 40.9132 19.4481 38.9097 18.9806ZM42.0775 25.9565C40.0211 26.3873 37.8177 26.6433 35.5186 26.6933V18.5794C37.8006 19.7803 39.7613 21.7419 41.1909 24.2071C41.5152 24.7655 41.8115 25.3501 42.0775 25.9565ZM35.5186 49.0558C37.113 48.2174 38.5286 47.0243 39.7154 45.5703C40.6542 44.4203 41.4491 43.1073 42.0752 41.6773C41.3246 41.5201 40.5546 41.3868 39.7668 41.2775C38.3979 41.0878 36.9769 40.9729 35.5186 40.9412V49.0558ZM41.4343 36.9819C42.342 36.0737 43.2652 35.2155 44.1923 34.4124C44.2312 34.3842 44.2669 34.3531 44.2996 34.32C44.5547 34.1007 44.809 33.8856 45.0649 33.6748C45.0735 33.6678 45.082 33.6607 45.0906 33.6537C46.7908 32.2512 48.4941 31.039 50.1321 30.0497C50.6936 29.7106 51.2466 29.3982 51.7872 29.1133C51.8113 29.102 51.8346 29.0901 51.8572 29.0767C53.8763 28.0218 55.7274 27.3611 57.2627 27.1629L61.1484 30.3537C61.0636 32.1503 60.1988 34.4864 58.6829 37.0693C57.0885 39.7876 54.7894 42.7428 51.9318 45.6028C51.8354 45.6994 51.6853 45.8467 51.487 46.0399L48.7469 43.7899C48.7243 43.768 48.701 43.7469 48.6753 43.7271C48.6605 43.7158 48.6458 43.7053 48.631 43.6947L45.4087 41.049C45.3799 41.0215 45.3496 40.9969 45.3161 40.9729L44.0359 39.9215C44.0134 39.9004 43.9893 39.8806 43.9636 39.8623L40.9987 37.4275C41.2259 37.1941 41.3736 37.0432 41.4343 36.9819ZM46.944 44.3554C45.4639 45.7713 43.6929 46.9298 41.7205 47.7506C40.8245 48.1229 39.8858 48.4268 38.9128 48.6538C39.6898 48.0051 40.4076 47.2746 41.0617 46.4743C42.125 45.1712 43.0178 43.6827 43.7085 42.0623C43.934 42.1215 44.1565 42.1836 44.3774 42.2478L46.944 44.3554ZM45.2415 31.5115C45.075 29.9383 44.7398 28.4279 44.2599 27.0085C45.8839 26.5742 47.4068 26.0326 48.8029 25.3987C49.4197 26.2477 49.9454 27.1552 50.3685 28.1106C49.9851 28.3222 49.597 28.5464 49.2065 28.7819C47.9131 29.5632 46.5808 30.4785 45.2415 31.5115ZM43.3398 33.055C43.4472 32.9633 43.5553 32.8724 43.6634 32.7814C43.5685 30.8832 43.2131 29.0717 42.6406 27.3985L42.5325 27.4217C40.3299 27.8885 37.9724 28.1642 35.5201 28.2157V33.0543H43.3406L43.3398 33.055ZM39.1904 36.9945C39.4059 36.7675 39.5708 36.594 39.6851 36.477C39.7566 36.4037 39.9239 36.2351 40.1945 35.9644C40.6697 35.4891 41.1489 35.0265 41.6303 34.5788H35.5194V39.4174C37.0609 39.4498 38.5651 39.5711 40.0172 39.772C40.5842 39.8503 41.1434 39.942 41.6941 40.0442L39.2659 38.0501C38.9291 37.7737 38.898 37.3055 39.1912 36.9953L39.1904 36.9945ZM68.8577 22.0204C68.8888 21.9824 68.9245 21.9471 68.9627 21.9154L70.2724 20.6038C70.5874 20.2887 70.7095 19.8564 70.6535 19.4129C70.5952 18.9524 70.3471 18.4878 69.9224 18.1204C69.8936 18.1006 69.8664 18.0788 69.8408 18.0548L69.8423 18.0534C69.6603 17.9088 69.4628 17.7925 69.2582 17.7044C69.2147 17.691 69.1719 17.674 69.1322 17.6543C68.8693 17.5577 68.5971 17.5076 68.3319 17.5041C67.8419 17.497 67.3799 17.6508 67.0641 17.9667L58.7233 26.3154L61.9332 28.9512L68.8584 22.0197L68.8577 22.0204ZM7.39212 6.62045C6.77379 6.62045 6.27213 6.16564 6.27213 5.60506C6.27213 5.04448 6.77379 4.58968 7.39212 4.58968H7.43256C8.05089 4.58968 8.55255 5.04448 8.55255 5.60506C8.55255 6.16564 8.05089 6.62045 7.43256 6.62045H7.39212ZM13.8118 6.62045C13.1935 6.62045 12.6918 6.16564 12.6918 5.60506C12.6918 5.04448 13.1935 4.58968 13.8118 4.58968H13.8523C14.4706 4.58968 14.9723 5.04448 14.9723 5.60506C14.9723 6.16564 14.4706 6.62045 13.8523 6.62045H13.8118ZM20.2315 6.62045C19.6132 6.62045 19.1115 6.16564 19.1115 5.60506C19.1115 5.04448 19.6132 4.58968 20.2315 4.58968H20.272C20.8903 4.58968 21.392 5.04448 21.392 5.60506C21.392 6.16564 20.8903 6.62045 20.272 6.62045H20.2315ZM29.3633 6.3666C28.8998 6.3666 28.5233 6.02532 28.5233 5.60506C28.5233 5.1848 28.8998 4.84352 29.3633 4.84352H61.9658C62.4294 4.84352 62.8058 5.1848 62.8058 5.60506C62.8058 6.02532 62.4294 6.3666 61.9658 6.3666H29.3633ZM68.6912 12.387V16.0064C68.58 15.9958 68.4688 15.9895 68.3583 15.9881C67.4017 15.974 66.48 16.2934 65.8236 16.9506L57.1343 25.6483C55.5796 25.8345 53.7744 26.4204 51.8377 27.3526C51.2879 26.1539 50.5886 25.0257 49.7626 23.9856C49.7549 23.9751 49.7463 23.9645 49.7378 23.9546C48.533 22.4456 47.0591 21.1242 45.3807 20.0496C42.3544 18.1126 38.6623 16.9746 34.6794 16.9746C29.5492 16.9746 24.9044 18.8601 21.5428 21.9076C18.1806 24.9559 16.1016 29.1662 16.1016 33.8172C16.1016 38.4683 18.1813 42.6793 21.5428 45.7269C24.9051 48.7751 29.5492 50.6599 34.6794 50.6599C37.4358 50.6599 40.0569 50.1128 42.4166 49.1312C44.6053 48.2209 46.5621 46.9397 48.19 45.3785L50.9371 47.6342L50.9581 47.6526C51.2933 47.9417 51.8237 47.9297 52.1426 47.6258C52.3246 47.4523 52.4973 47.2873 52.6591 47.1294C52.7718 47.0194 52.9414 46.8515 53.1732 46.6195C56.1365 43.6531 58.518 40.5928 60.1669 37.7829C61.8188 34.9666 62.7529 32.3675 62.8253 30.3191L68.692 24.4468V53.5742C68.692 53.907 68.5411 54.2096 68.2984 54.4296C68.0558 54.6496 67.7221 54.7863 67.355 54.7863H2.00373C1.63663 54.7863 1.30296 54.6496 1.0603 54.4296C0.817635 54.2096 0.666748 53.907 0.666748 53.5742V12.387H68.6912ZM0.666748 10.8639H68.6904V1.42647C68.6904 1.09436 68.5396 0.791151 68.2969 0.571151C68.0542 0.351151 67.7206 0.214355 67.3534 0.214355H2.00373C1.6374 0.214355 1.30296 0.351151 1.0603 0.571151C0.817635 0.791151 0.666748 1.09365 0.666748 1.42647V10.8639Z" fill="white"/>
</g>
<defs>
<clipPath id="clip0_1_31">
<rect width="70" height="55" fill="white" transform="translate(0.666748)"/>
</clipPath>
</defs>
</svg>
