<svg width="76" height="61" viewBox="0 0 76 61" fill="none" xmlns="http://www.w3.org/2000/svg">
<path d="M24.5607 28.1124H20.8909C20.3049 28.1124 19.8324 28.512 19.8324 29.0076V36.6153C19.8324 37.111 20.3049 37.5105 20.8909 37.5105H24.5607C25.1467 37.5105 25.6192 37.1109 25.6192 36.6153V29.0076C25.6192 28.512 25.1467 28.1124 24.5607 28.1124ZM23.5023 35.7201H21.9494V29.9029H23.5023V35.7201ZM43.1806 29.0077V36.6154C43.1806 37.111 43.6531 37.5106 44.2391 37.5106H47.9089C48.4949 37.5106 48.9674 37.111 48.9674 36.6154V29.0077C48.9674 28.5121 48.4949 28.1125 47.9089 28.1125H44.2391C43.6531 28.1125 43.1806 28.5121 43.1806 29.0077ZM45.2975 29.9029H46.8504V35.7201H45.2975V29.9029ZM38.8991 38.7994H29.9003C29.3144 38.7994 28.8419 39.199 28.8419 39.6946V42.7984C28.8419 43.294 29.3144 43.6936 29.9003 43.6936H38.8991C39.4851 43.6936 39.9576 43.294 39.9576 42.7984V39.6946C39.9576 39.199 39.4851 38.7994 38.8991 38.7994ZM37.8407 41.9032H30.9589V40.5899H37.8407V41.9032ZM68.789 15.0004C68.789 15.496 68.3165 15.8956 67.7305 15.8956H46.1217C45.5357 15.8956 45.0632 15.496 45.0632 15.0004C45.0632 14.5048 45.5357 14.1052 46.1217 14.1052H67.7305C68.3165 14.1052 68.789 14.5048 68.789 15.0004ZM45.063 6.3608C45.063 5.86518 45.5355 5.4656 46.1215 5.4656H61.1193C61.7053 5.4656 62.1778 5.86519 62.1778 6.3608C62.1778 6.85641 61.7053 7.256 61.1193 7.256H46.1215C45.5355 7.256 45.063 6.85641 45.063 6.3608ZM68.789 10.6819C68.789 11.1776 68.3165 11.5771 67.7305 11.5771H46.1217C45.5357 11.5771 45.0632 11.1775 45.0632 10.6819C45.0632 10.1863 45.5357 9.78673 46.1217 9.78673H67.7305C68.3165 9.78673 68.789 10.1863 68.789 10.6819ZM70.4188 0.5H43.4338C40.5368 0.5 38.178 2.49483 38.178 4.94508V12.1904H25.4032C16.5216 12.1904 9.13777 17.7041 7.78669 24.8964H7.73175C3.83855 24.8964 0.666748 27.5758 0.666748 30.8685V34.7467C0.666748 38.0394 3.8348 40.7188 7.73175 40.7188H7.78669C9.13814 47.9114 16.5254 53.428 25.4032 53.428H43.3967C52.2747 53.428 59.6584 47.9112 61.0095 40.7188H61.0681C61.3501 40.7188 61.6285 40.7033 61.9032 40.6754V45.7772C61.9032 51.768 56.1421 56.6435 49.059 56.6435H39.3605C38.91 55.4447 37.5842 54.5743 36.0166 54.5743H32.7643C30.8341 54.5743 29.2629 55.9062 29.2629 57.5387C29.2629 59.1742 30.8341 60.5 32.7643 60.5H36.0166C37.5805 60.5 38.9099 59.6295 39.3605 58.4339H49.059C57.307 58.4339 64.0203 52.7559 64.0203 45.777V40.1704C66.4411 39.2225 68.1259 37.1502 68.1259 34.7496V30.8714C68.1259 27.5787 64.9579 24.8993 61.0647 24.8993H61.0024C60.7387 23.5023 60.2406 22.1424 59.5264 20.86H70.411C73.308 20.86 75.6667 18.8683 75.6667 16.418V4.94747C75.6667 2.4973 73.3081 0.502389 70.411 0.502389L70.4188 0.5ZM36.0277 58.7067H32.7753C32.0135 58.7067 31.3909 58.1801 31.3909 57.5358C31.3909 56.8915 32.0135 56.3618 32.7753 56.3618H36.0277C36.7931 56.3618 37.4158 56.8884 37.4158 57.5358C37.4158 58.1832 36.7931 58.7067 36.0277 58.7067ZM38.1812 13.9776V16.4154C38.1812 17.261 38.4632 18.0509 38.9467 18.7231C38.5988 18.7634 38.2435 18.7851 37.8882 18.7851H30.9148C27.4684 18.7851 24.3993 16.8212 23.381 14.0891C24.044 14.0179 24.7215 13.9776 25.4064 13.9776L38.1812 13.9776ZM2.78309 34.7498V30.8717C2.78309 28.6104 4.92194 26.7642 7.57732 26.693C7.56999 26.8882 7.56267 27.0802 7.56267 27.2785V38.343C7.56267 38.5381 7.56999 38.7333 7.57732 38.9284C4.91838 38.8603 2.78309 37.0141 2.78309 34.7498ZM66.0157 30.8717V34.7498C66.0157 37.0142 63.8769 38.8604 61.2215 38.9285C61.2288 38.7333 61.2362 38.5413 61.2362 38.343V27.2785C61.2362 27.0834 61.2288 26.8882 61.2215 26.6931C63.8805 26.7612 66.0157 28.6074 66.0157 30.8717ZM59.1192 27.2785V38.343C59.1192 45.675 52.069 51.6414 43.3994 51.6414H25.406C16.7368 51.6414 9.68242 45.6754 9.68242 38.343V27.2785C9.68242 21.1483 14.6121 15.9753 21.2965 14.4448C21.8349 16.0246 22.9226 17.4588 24.4242 18.5461C26.2371 19.8563 28.5408 20.5781 30.9142 20.5781H37.8876C38.8544 20.5781 39.8104 20.4604 40.7296 20.228C41.5207 20.6307 42.4436 20.8631 43.4325 20.8631H46.8496V22.3561C46.3112 22.2879 45.7618 22.2508 45.1978 22.2508H23.5965C17.4875 22.2508 12.5178 26.4542 12.5178 31.6207V38.2309C12.5178 43.3977 17.4878 47.6009 23.5965 47.6009H45.1978C51.3069 47.6009 56.2765 43.3974 56.2765 38.2309V31.6207C56.2765 28.328 54.2585 25.4286 51.2113 23.7559L54.6357 20.8596H57.1482C58.4338 22.8205 59.115 25.029 59.115 27.2779L59.1192 27.2785ZM47.5052 26.1138C47.637 26.1602 47.7726 26.1819 47.9117 26.1819C48.1864 26.1819 48.4574 26.0921 48.6625 25.9186L49.6843 25.0544C52.3616 26.3678 54.1709 28.8149 54.1709 31.6182V38.2284C54.1709 42.4102 50.1495 45.8083 45.2088 45.8083H23.6074C18.6631 45.8083 14.6453 42.4071 14.6453 38.2284V31.6182C14.6453 27.4365 18.6668 24.0384 23.6074 24.0384H45.2088C45.7728 24.0384 46.3222 24.0848 46.8606 24.1685V25.2836C46.8606 25.646 47.1169 25.9712 47.5125 26.1106L47.5052 26.1138ZM73.5564 16.4179C73.5564 17.88 72.15 19.0695 70.4176 19.0695H54.1999C53.9179 19.0695 53.6506 19.1624 53.4528 19.3328L49.2372 22.8981C49.1457 22.8672 49.0578 22.8362 48.9662 22.8083V19.9647C48.9662 19.4691 48.4937 19.0695 47.9078 19.0695H43.4322C41.7035 19.0695 40.2934 17.8801 40.2934 16.418V4.94742C40.2934 3.48531 41.6998 2.29274 43.4322 2.29274H70.4173C72.1497 2.29274 73.5561 3.48222 73.5561 4.94742L73.5564 16.4179Z" fill="white"/>
</svg>
